<?xml version="1.0" standalone="no"?>
<!DOCTYPE svg PUBLIC "-//W3C//DTD SVG 1.1//EN" "http://www.w3.org/Graphics/SVG/1.1/DTD/svg11.dtd" >
<svg xmlns="http://www.w3.org/2000/svg">
<metadata></metadata>
<defs>
<font id="constantiabold_italic" horiz-adv-x="1130" >
<font-face units-per-em="2048" ascent="1538" descent="-510" />
<missing-glyph horiz-adv-x="470" />
<glyph horiz-adv-x="0" />
<glyph horiz-adv-x="0" />
<glyph unicode="&#xd;" horiz-adv-x="0" />
<glyph unicode=" "  horiz-adv-x="470" />
<glyph unicode="&#x09;" horiz-adv-x="470" />
<glyph unicode="&#xa0;" horiz-adv-x="470" />
<glyph unicode="!" horiz-adv-x="624" d="M122 125q0 68 43 109.5t110 41.5q64 0 106 -41.5t42 -109.5q0 -67 -44 -109.5t-108 -42.5q-67 0 -108 42.5t-41 109.5zM269 416l79 940l314 12l8 -8l-322 -940z" />
<glyph unicode="&#x22;" horiz-adv-x="742" d="M213 1002l40 485h222l-188 -485h-74zM543 1002l40 485h222l-188 -485h-74z" />
<glyph unicode="#" d="M54 371l10 145h221l56 251h-198l10 145h220l85 382h124l-85 -382h275l85 382h123l-85 -382h201l-10 -145h-223l-55 -251h199l-10 -145h-221l-84 -381h-124l84 381h-275l-84 -381h-124l84 381h-199zM409 516h275l56 251h-275z" />
<glyph unicode="$" horiz-adv-x="901" d="M-30 31l85 286l60 10l29 -236q80 -25 156 -28l78 359l-26 12q-45 21 -89 45t-79 57t-57 79.5t-22 112.5q0 133 117.5 224.5t305.5 109.5l24 112l91 8l-25 -117q160 -3 285 -42l4 -9l-85 -248l-54 -9l-33 199q-67 21 -136 23l-71 -331l42 -20q46 -22 91 -47.5t81 -60 t58 -81.5t22 -111q0 -155 -126.5 -250t-325.5 -105l-27 -124l-92 -8l29 132q-143 6 -306 50zM338 833q0 -51 26.5 -83.5t81.5 -63.5l63 289q-78 -11 -124.5 -48t-46.5 -94zM390 66q101 10 148 51t47 102q0 59 -33.5 97t-91.5 70z" />
<glyph unicode="%" horiz-adv-x="1682" d="M86 940q0 214 112.5 380t294.5 166q131 0 197 -75t66 -225q0 -215 -112 -381t-296 -166q-129 0 -195.5 74.5t-66.5 226.5zM268 855q0 -67 22 -108t64 -41q92 0 156 196t64 368q0 73 -22 111t-67 38q-94 0 -155.5 -192.5t-61.5 -371.5zM335 8l946 1477l91 -63l-947 -1477z M1015 282q0 214 112.5 380t294.5 166q131 0 197 -75t66 -225q0 -215 -112 -381t-296 -166q-129 0 -195.5 74.5t-66.5 226.5zM1197 197q0 -67 22 -108t64 -41q92 0 156 196t64 368q0 73 -22 111t-67 38q-94 0 -155.5 -192.5t-61.5 -371.5z" />
<glyph unicode="&#x26;" horiz-adv-x="1559" d="M67 387q0 149 107.5 256t294.5 133v6q-80 36 -124 98t-44 139q0 172 140 268t370 96q142 0 286 -37l6 -7l-101 -294l-40 -7l-22 228q-65 22 -122 22q-110 0 -173.5 -77t-63.5 -204q0 -88 48 -137.5t165 -70.5l-17 -75q-54 9 -104 9q-149 0 -225.5 -82.5t-76.5 -213.5 q0 -150 102 -240.5t266 -90.5q167 0 283 96.5t116 257.5q0 76 -40.5 131t-105.5 55q-46 0 -74 -29t-28 -73q0 -56 58 -91l-2 -8q-92 -37 -179 -68q-31 46 -31 95q0 126 124 224t281 98q56 0 104.5 -8t90.5 -17q35 -8 63.5 -13.5t53.5 -5.5q71 0 170 97l33 -22 q-102 -286 -255 -286q-65 0 -178 41l-2 -4q53 -85 53 -177q0 -175 -172 -304t-422 -129q-268 0 -440.5 113t-172.5 308z" />
<glyph unicode="'" horiz-adv-x="412" d="M205 1002l40 485h222l-188 -485h-74z" />
<glyph unicode="(" horiz-adv-x="787" d="M125 389q0 707 731 1184l38 -40q-556 -503 -556 -1198q1 -412 172 -674l-54 -40q-331 326 -331 768z" />
<glyph unicode=")" horiz-adv-x="791" d="M-58 -339q556 503 556 1198q-1 412 -172 674l54 40q331 -326 331 -768q0 -707 -731 -1184z" />
<glyph unicode="*" horiz-adv-x="902" d="M261 1205l79 148l239 -213l20 310l165 -31l-128 -293l301 77l22 -165l-319 31l166 -263l-151 -69l-69 310l-197 -239l-116 121l277 162z" />
<glyph unicode="+" d="M73 391v141h412v412h141v-412h411v-141h-411v-411h-141v411h-412z" />
<glyph unicode="," horiz-adv-x="586" d="M-68 -270q203 141 203 288q0 103 -111 163q5 69 52 110.5t109 41.5q69 0 110.5 -47t41.5 -128q0 -258 -361 -487z" />
<glyph unicode="-" horiz-adv-x="681" d="M64 424l29 146h516l-29 -146h-516z" />
<glyph unicode="." horiz-adv-x="586" d="M78 130q0 70 42.5 112.5t111.5 42.5q66 0 109 -42.5t43 -112.5q0 -69 -43 -113t-109 -44q-69 0 -111.5 44t-42.5 113z" />
<glyph unicode="/" horiz-adv-x="825" d="M60 -226l605 1652h136l-601 -1652h-140z" />
<glyph unicode="0" horiz-adv-x="1182" d="M70 375q0 268 149 421.5t413 153.5q207 0 331 -104.5t124 -295.5q0 -272 -151.5 -423.5t-410.5 -151.5q-205 0 -330 104t-125 296zM359 311q0 -123 44.5 -184t132.5 -61q124 0 193 153.5t69 395.5q0 123 -45 183.5t-132 60.5q-125 0 -193.5 -161t-68.5 -387z" />
<glyph unicode="1" horiz-adv-x="748" d="M-12 -3l5 48l157 41q28 7 33 32q16 81 36 180l31 160q20 102 35 190t28 166l-207 20l5 50q123 15 249.5 31.5t255.5 34.5l8 -8q-45 -179 -81 -361l-47 -246q-13 -66 -22 -118.5t-17 -94.5q-5 -29 21 -36l158 -41l-6 -48q-91 2 -176 2.5t-155 0.5q-72 0 -146 -0.5 t-165 -2.5z" />
<glyph unicode="2" horiz-adv-x="993" d="M-22 -3l16 122q76 45 150 87.5t140.5 84t122.5 82t96.5 82.5t63.5 86t23 92q0 83 -53.5 128t-142.5 45q-98 0 -219 -63l-34 79q195 128 395 128q154 0 245.5 -74.5t91.5 -183.5q0 -89 -40.5 -152.5t-117.5 -118t-188 -107t-251 -117.5v-5h477l101 155l59 8l-86 -351 l-8 -7q-183 3 -429 3q-304 0 -412 -3z" />
<glyph unicode="3" horiz-adv-x="935" d="M-150 -460l9 88q171 10 294.5 43t204 85t119 121t38.5 151q0 106 -72 167.5t-183 61.5q-61 0 -131 -13l12 89q191 20 300 91.5t109 202.5q0 85 -56 136.5t-147 51.5q-112 0 -240 -75l-30 79q191 131 415 131q159 0 256.5 -75t97.5 -192q0 -124 -104 -207.5t-300 -132.5 v-5q17 2 23 2q159 0 255.5 -77.5t96.5 -204.5q0 -85 -33.5 -156.5t-95.5 -128.5t-149.5 -100.5t-195 -73t-232.5 -44t-261 -15.5z" />
<glyph unicode="4" horiz-adv-x="1072" d="M-54 -8l17 118q376 434 776 833l204 7l4 -12q-381 -329 -799 -794h371l65 349l275 15l-69 -364h214l-26 -152q-108 3 -217 3l-20 -112q-11 -60 -24 -130.5t-25 -152.5q-142 -10 -274 -26l-8 8q33 156 57 285l23 128h-228q-195 0 -316 -3z" />
<glyph unicode="5" horiz-adv-x="957" d="M-90 -458l10 86q145 5 260.5 37t196 83.5t123 119.5t42.5 146q0 287 -450 302l-5 7l169 605q126 -4 352 -4q177 0 320 4l3 -8l-76 -234l-547 14l-48 -163q292 -21 440.5 -136t148.5 -301q0 -88 -33 -163.5t-93.5 -137.5t-145.5 -110t-189.5 -81t-225 -49.5t-252.5 -16.5z " />
<glyph unicode="6" horiz-adv-x="1123" d="M58 418q0 393 285 671.5t766 303.5l5 -91q-532 -63 -715 -578l4 -1q123 131 305 131q147 0 245 -92t98 -258q0 -238 -155 -384t-386 -146q-216 0 -334 116t-118 328zM328 349q0 -129 46.5 -204.5t131.5 -75.5q111 0 184 111.5t73 290.5q-2 118 -50 183t-135 65 q-109 0 -179.5 -103.5t-70.5 -266.5z" />
<glyph unicode="7" horiz-adv-x="967" d="M13 -403l778 1068h-591l-100 -204l-65 -7l72 466l8 8q170 -4 440 -4h55q279 0 411 4l-25 -153q-433 -589 -717 -1175l-262 -10z" />
<glyph unicode="8" horiz-adv-x="1095" d="M27 315q0 122 86 209.5t263 160.5q-153 123 -153 296q0 162 131.5 276.5t339.5 114.5q181 0 288.5 -80t107.5 -205q0 -102 -76.5 -182t-225.5 -143q126 -85 185 -168t59 -184q0 -184 -160 -310t-387 -126q-213 0 -335.5 93.5t-122.5 247.5zM293 331q0 -123 60.5 -192 t161.5 -69q97 0 162 58.5t65 156.5q0 91 -62.5 164.5t-228.5 178.5q-158 -83 -158 -297zM476 1095q0 -72 54 -136t174 -141q137 76 137 256q0 98 -48 152t-131 54t-134.5 -50.5t-51.5 -134.5z" />
<glyph unicode="9" horiz-adv-x="1119" d="M-2 -379q530 62 715 578l-4 1q-122 -131 -305 -131q-144 0 -243.5 91.5t-99.5 261.5q0 233 155.5 380t385.5 147q216 0 334 -115.5t118 -328.5q0 -382 -278 -665t-773 -310zM349 452q0 -118 49 -183t133 -65q103 0 178 96.5t75 273.5q0 129 -46.5 204.5t-131.5 75.5 q-111 0 -184 -112.5t-73 -289.5z" />
<glyph unicode=":" horiz-adv-x="586" d="M98 130q0 70 42.5 112.5t111.5 42.5q66 0 109 -42.5t43 -112.5q0 -69 -43 -113t-109 -44q-69 0 -111.5 44t-42.5 113zM223 783q0 70 42.5 112.5t111.5 42.5q66 0 109 -42.5t43 -112.5q0 -69 -43 -113t-109 -44q-69 0 -111.5 44t-42.5 113z" />
<glyph unicode=";" horiz-adv-x="524" d="M17 -270q203 141 203 288q0 103 -111 163q5 69 52 110.5t109 41.5q69 0 110.5 -47t41.5 -128q0 -258 -361 -487zM223 783q0 70 42.5 112.5t111.5 42.5q66 0 109 -42.5t43 -112.5q0 -69 -43 -113t-109 -44q-69 0 -111.5 44t-42.5 113z" />
<glyph unicode="&#x3c;" d="M73 391v141l964 400v-147l-794 -324l794 -323v-147z" />
<glyph unicode="=" d="M73 211v141h964v-141h-964zM73 571v141h964v-141h-964z" />
<glyph unicode="&#x3e;" d="M73 -9v147l796 323l-796 324v147l964 -400v-141z" />
<glyph unicode="?" horiz-adv-x="930" d="M222 125q0 68 43 109.5t110 41.5q64 0 106 -41.5t42 -109.5q0 -67 -44 -109.5t-108 -42.5q-67 0 -108 42.5t-41 109.5zM276 1324l8 8q199 59 343 59q158 0 254.5 -72.5t96.5 -192.5q0 -65 -23 -118.5t-63 -99t-91 -87t-107 -83.5q-52 -39 -92 -69.5t-67.5 -58t-42 -53.5 t-14.5 -55q0 -38 25 -80l-51 -32q-61 51 -109.5 125t-48.5 125q0 34 14.5 63.5t41.5 59.5t66.5 61t90.5 68q48 35 90.5 64.5t74.5 60.5t49.5 66.5t17.5 83.5q0 59 -42 94.5t-106 35.5q-76 0 -149 -27l-102 -229l-50 -7z" />
<glyph unicode="@" horiz-adv-x="1805" d="M102 306q0 118 30 231t87 214t139 186t186.5 146.5t229.5 96t268 34.5q94 0 180 -20.5t159.5 -58t134 -90t103 -116.5t65.5 -137t23 -152q0 -133 -49 -243.5t-130 -190t-184.5 -123.5t-212.5 -44q-75 0 -124.5 34.5t-61.5 104.5q-159 -135 -241 -135q-55 0 -99 22.5 t-75 61.5t-48 93t-17 117q0 112 38.5 210.5t106 171.5t159 115t198.5 42q78 0 189 -32q76 6 162 28l12 -7q-15 -50 -32 -123t-37 -171l-63 -306q-6 -29 -6 -47q0 -70 57 -70q39 0 85 35.5t86 100.5t66.5 156t26.5 202q0 108 -36.5 197t-101 152.5t-153.5 98t-194 34.5 q-107 0 -200.5 -29.5t-171.5 -83t-139 -126.5t-103.5 -160.5t-65 -185t-22.5 -199.5q0 -129 42 -235.5t118.5 -182t183.5 -117t237 -41.5q104 0 193.5 18.5t165 50.5t138 74.5t113.5 91.5l45 -57q-80 -74 -158.5 -129.5t-166 -93t-188 -56.5t-223.5 -19q-161 0 -294 47 t-228.5 134t-148.5 209t-53 272zM728 383q0 -97 20 -150.5t65 -53.5q48 0 134 82l102 498q-46 31 -94 31q-104 0 -165 -133q-62 -135 -62 -274z" />
<glyph unicode="A" horiz-adv-x="1367" d="M-146 -3l6 51l111 31q48 17 74.5 48t46.5 64l718 1213l110 17l209 -1215q6 -34 12.5 -57.5t14.5 -36.5q16 -26 51 -36l106 -28l-7 -51q-163 3 -308 3q-141 0 -315 -3l5 51l97 28q21 7 34.5 18t13.5 43q0 31 -15 120l-30 186h-415l-105 -183q-32 -57 -52 -96t-20 -56 q0 -20 34 -31l94 -27l-9 -53q-136 3 -248 3t-213 -3zM431 546h340l-59 368l-13 106l-57 -105z" />
<glyph unicode="B" horiz-adv-x="1300" d="M4 -3l5 51l135 37q27 8 34 31q8 40 18 89.5t22 109.5l152 795q10 51 17 92t12 74q5 25 -17 34l-131 39l8 51q171 -4 309 -4q42 0 128.5 5t121.5 5q224 0 338.5 -77t114.5 -209q0 -293 -355 -363q298 -82 298 -311q0 -217 -175.5 -334.5t-465.5 -117.5q-52 0 -117.5 3 t-161.5 3q-128 0 -290 -3zM472 99q44 -14 117 -14q146 0 226 87.5t80 255.5q0 131 -58 201t-168 70q-47 0 -83 -4zM604 787q34 -2 75 -2q142 0 214.5 76.5t72.5 231.5q0 105 -50.5 161.5t-149.5 56.5q-31 0 -64 -5z" />
<glyph unicode="C" horiz-adv-x="1356" d="M116 562q0 378 266.5 619.5t668.5 241.5q174 0 352 -41l4 -10l-122 -350l-56 -9l-32 287q-68 24 -161 24q-258 0 -429.5 -217t-171.5 -522q0 -227 126 -356.5t344 -129.5q138 0 285 60l21 -59q-215 -130 -469 -130q-285 0 -455.5 161.5t-170.5 430.5z" />
<glyph unicode="D" horiz-adv-x="1627" d="M4 -3l6 51l135 37q30 8 34 31q8 40 18 89.5t22 109.5l151 795q10 51 17 92t12 74q5 25 -17 34l-131 39l8 51q153 -4 304 -4q64 0 159 5t168 5q321 0 500 -136t179 -403q0 -384 -263 -628.5t-685 -244.5q-77 0 -141 3t-185 3q-149 0 -291 -3zM474 99q75 -12 143 -12 q296 0 466.5 213t170.5 568q0 226 -92.5 333.5t-283.5 107.5q-75 0 -175 -8z" />
<glyph unicode="E" horiz-adv-x="1223" d="M3 -3l6 51l135 37q27 7 34 31q8 40 18 89.5t22 109.5l152 795q10 51 17 92t12 74q5 26 -17 34l-132 39l8 51q152 -4 309 -4h196q239 0 508 4l5 -8l-115 -333l-56 -8l-28 244h-375l-101 -533h43q72 0 200 1q28 1 39 27l62 137l62 2q-50 -218 -83 -426l-62 -4l-11 138 q-2 26 -25 27q-88 2 -203 2h-42l-65 -342q-21 -111 -40 -221h408l168 266l63 9l-86 -374l-8 -7q-268 3 -503 3h-223q-150 0 -292 -3z" />
<glyph unicode="F" horiz-adv-x="1141" d="M3 -3l6 51l135 37q27 7 34 31q8 40 18 89.5t22 109.5l152 795q10 51 17 92t12 74q5 26 -17 34l-132 39l8 51q152 -4 309 -4h198q239 0 508 4l5 -8l-115 -333l-56 -8l-28 244h-377l-105 -555h50q72 0 200 1q28 1 39 27l62 137l62 2q-50 -218 -83 -426l-62 -4l-11 138 q-2 26 -25 27q-88 2 -203 2h-49l-63 -329q-12 -60 -21 -109t-15 -89q-3 -25 28 -34l132 -35l-8 -51q-180 3 -326 3q-159 0 -301 -3z" />
<glyph unicode="G" horiz-adv-x="1489" d="M114 555q0 385 267.5 626.5t691.5 241.5q158 0 356 -41l5 -9l-118 -342l-58 -8l-28 275q-82 28 -197 28q-265 0 -433 -217.5t-168 -519.5q0 -227 111 -375t292 -148q42 0 85 7l50 267q11 51 18 91.5t13 74.5q4 27 -18 34l-121 39l7 43q82 -2 157.5 -3t145.5 -1 q74 0 143.5 1t135.5 3l-4 -43l-110 -33q-29 -8 -33 -30q-9 -40 -17 -81.5t-18 -90.5l-61 -317l-8 -7q-213 -50 -404 -50q-320 0 -501 154t-181 431z" />
<glyph unicode="H" horiz-adv-x="1695" d="M4 -3l6 51l135 37q29 8 34 31q18 80 40 198l151 795q19 100 29 167q5 26 -17 34l-131 39l9 51q175 -4 318 -4q136 0 292 4l-6 -52l-130 -35q-26 -6 -32 -31q-16 -72 -35 -169l-61 -321h602l61 322q19 97 31 169q4 25 -20 31l-117 35l9 51q163 -4 297 -4q146 0 316 4 l-6 -51l-150 -39q-24 -8 -30 -34q-15 -66 -34 -166l-151 -795q-21 -118 -35 -199q-3 -23 20 -31l129 -37l-9 -51q-178 3 -321 3q-137 0 -286 -3l6 51l127 35q27 7 33 34q18 80 40 198l70 371h-603l-71 -371q-22 -118 -34 -198q-4 -27 20 -34l117 -35l-9 -51q-160 3 -291 3 q-148 0 -313 -3z" />
<glyph unicode="I" horiz-adv-x="796" d="M5 -3l4 51l135 37q28 8 34 31q9 39 18.5 89t21.5 110l153 795q10 51 17 92t12 74q5 27 -17 34l-131 39l9 51q85 -2 163 -3t150 -1t147 1t156 3l-7 -51l-137 -37q-25 -6 -31 -31q-9 -35 -17 -76.5t-18 -90.5l-153 -799q-12 -60 -21 -109t-15 -89q-3 -25 28 -34l122 -35 l-8 -51q-170 3 -308 3q-148 0 -307 -3z" />
<glyph unicode="J" horiz-adv-x="741" d="M-221 -371q205 91 281 209.5t117 333.5l178 938q9 51 16.5 92t12.5 74q5 26 -18 34l-131 39l10 51q85 -2 161 -3t143 -1q76 0 153 1t158 3l-6 -51l-137 -37q-25 -6 -32 -31q-8 -35 -16.5 -76.5t-17.5 -90.5l-165 -873q-55 -291 -188.5 -446.5t-504.5 -229.5z" />
<glyph unicode="K" horiz-adv-x="1522" d="M5 -3l4 51l135 37q28 7 34 31q9 39 18.5 89t21.5 110l153 795q10 51 17 92t12 74q4 27 -17 34l-131 39l9 51q161 -4 313 -4t293 4l-7 -51l-127 -37q-25 -6 -31 -31q-9 -35 -17 -76.5t-18 -90.5l-153 -799q-12 -60 -21 -109t-15 -89q-3 -25 28 -34l112 -35l-8 -51 q-161 3 -298 3q-148 0 -307 -3zM608 701l484 448q67 62 99 98.5t32 55.5q0 15 -21 21l-79 22l8 54q104 -4 228 -4q127 0 233 4l-6 -51l-103 -32q-42 -13 -80.5 -37.5t-99.5 -81.5l-427 -401l338 -606q31 -55 56.5 -81.5t71.5 -39.5l78 -22l-7 -51q-118 3 -243 3 q-93 0 -189 -2q-11 36 -44 103t-89 168z" />
<glyph unicode="L" horiz-adv-x="1176" d="M4 -3l6 51l135 37q28 7 34 31q8 40 18 89.5t22 109.5l151 795q10 51 17 92t12 74q5 26 -17 34l-131 39l9 51q171 -4 315 -4q141 0 301 4l-7 -51l-137 -37q-25 -6 -31 -31q-9 -35 -22 -102t-13 -65l-150 -791q-21 -111 -40 -220h401l183 287l63 9l-91 -395l-7 -7 q-227 3 -458 3h-253q-149 0 -310 -3z" />
<glyph unicode="M" horiz-adv-x="1906" d="M-25 -3l6 51l139 37q29 8 34 31q18 81 40 199l151 795q19 100 29 166q5 26 -17 34l-127 39l8 51q173 -4 267 -4q102 0 199 4l189 -873q12 -60 22 -116q31 54 62 106l534 883q115 -4 210 -4q98 0 269 4l-6 -51l-143 -39q-25 -8 -31 -34q-15 -66 -34 -166l-151 -795 q-22 -118 -36 -199q-3 -23 21 -31l125 -37l-9 -51q-170 3 -314 3t-283 -3l6 51l120 35q26 7 33 35q17 79 39 197l158 805l-676 -1120l-94 -8l-242 1120l-151 -797q-22 -118 -35 -197q-5 -28 19 -35l115 -35l-8 -51q-134 3 -217 3q-75 0 -221 -3z" />
<glyph unicode="N" horiz-adv-x="1474" d="M-21 -3l4 50l142 37q27 8 32 31q9 41 19 90t21 109l148 797q9 51 16.5 92t12.5 74q4 25 -18 33l-126 39l7 51q70 -2 123 -3t90 -1q25 0 49 1t49 3l520 -851q28 -53 60 -111l27 147l100 530q10 49 17.5 90.5t12.5 76.5q3 22 -20 30l-122 35l8 53q69 -2 124.5 -3t98.5 -1 q45 0 100 1t124 3l-5 -51l-144 -39q-24 -8 -30 -33q-8 -33 -16.5 -74t-18.5 -92l-211 -1111l-108 -11l-553 904q-26 46 -60 111q-7 -39 -13 -74t-12 -66l-101 -550q-11 -60 -19.5 -108.5t-15.5 -86.5q-5 -29 19 -35l121 -35l-7 -52q-134 3 -219 3q-87 0 -226 -3z" />
<glyph unicode="O" horiz-adv-x="1679" d="M116 553q0 368 248.5 621.5t615.5 253.5q294 0 472 -155t178 -433q0 -371 -248.5 -623t-617.5 -252q-293 0 -470.5 156t-177.5 432zM438 521q0 -214 95 -337.5t260 -123.5q237 0 375.5 230t138.5 583q0 216 -96 338t-259 122q-237 0 -375.5 -231.5t-138.5 -580.5z" />
<glyph unicode="P" horiz-adv-x="1262" d="M4 -3l6 51l135 37q29 8 34 31q8 40 18 89.5t22 109.5l151 795q10 51 17 92t12 74q4 25 -17 34l-131 39l9 51q75 -2 150 -3t151 -1q60 0 130 4t112 4q239 0 373.5 -90.5t134.5 -267.5q0 -216 -172 -343t-428 -127q-75 0 -144 12l-52 -273q-11 -60 -19.5 -109t-15.5 -87 q-3 -23 20 -31l144 -40l-9 -51q-188 3 -329 3q-143 0 -302 -3zM585 682q36 -12 92 -12q147 0 233.5 96t86.5 273q0 126 -62 197t-162 71q-36 0 -70 -8z" />
<glyph unicode="Q" horiz-adv-x="1680" d="M116 553q0 368 248.5 621.5t615.5 253.5q294 0 472 -155t178 -433q0 -364 -234.5 -608t-562.5 -264q61 -196 383 -206q139 0 259 56l15 -58q-248 -215 -381 -215q-358 0 -436 424q-240 20 -398.5 170t-158.5 414zM438 521q0 -214 95 -337.5t260 -123.5q237 0 375.5 230 t138.5 583q0 216 -96 338t-259 122q-237 0 -375.5 -231.5t-138.5 -580.5z" />
<glyph unicode="R" horiz-adv-x="1407" d="M4 -3l5 51l135 37q26 7 34 31q8 40 18.5 89.5t21.5 109.5l153 795q10 51 17 91.5t12 74.5q4 27 -17 34l-131 39l7 51q81 -2 162.5 -3t146.5 -1q31 0 116.5 4.5t124.5 4.5q240 0 361.5 -79t121.5 -236q0 -287 -366 -402q14 -26 28.5 -58t25.5 -58q11 -27 22.5 -54.5 t22.5 -55.5q21 -54 42.5 -104.5t44.5 -104.5q19 -45 38.5 -80.5t45 -61.5t61.5 -43t90 -24l-6 -51q-88 -9 -167 -9q-72 0 -125.5 7t-93 27.5t-69 57.5t-54.5 96q-19 45 -37 91t-35 97q-20 55 -42.5 118t-47.5 124q-6 17 -15.5 30t-32.5 15l-44 3l-64 -335q-11 -60 -20 -108 t-15 -87q-4 -31 19 -39l114 -33l-7 -51q-75 2 -149 2.5t-145 0.5q-74 0 -153 -0.5t-154 -2.5zM595 738q20 -4 42 -4q336 0 336 334q0 118 -55 179.5t-158 61.5q-30 0 -57 -5z" />
<glyph unicode="S" horiz-adv-x="1118" d="M37 30l106 363l64 10l27 -309q79 -28 168 -28q148 0 247 69t99 185q0 55 -23 96t-60 73t-83 57.5t-92 51.5q-51 28 -104.5 61.5t-97 79.5t-71 106.5t-27.5 143.5q0 205 166.5 319.5t444.5 114.5q172 0 337 -45l4 -9l-112 -324l-57 -9l-32 270q-66 21 -142 21 q-141 -1 -235 -67q-92 -65 -92 -176q0 -56 24 -98q24 -40 60.5 -71t82 -57t92.5 -53q59 -34 114 -70.5t97 -82.5t67.5 -104.5t25.5 -136.5q0 -210 -183 -327t-452 -117q-173 0 -359 54z" />
<glyph unicode="T" horiz-adv-x="1266" d="M152 1017l41 375l9 8q125 -2 240.5 -3t226.5 -1h276q115 0 234.5 1t245.5 3l4 -8l-131 -366l-57 -9l-13 277h-292l-186 -975q-11 -60 -20.5 -109t-15.5 -89q-3 -25 28 -34l136 -39l-8 -51q-185 3 -323 3q-148 0 -322 -3l4 51l151 41q28 7 34 31q9 39 19 89t21 110 l187 975h-289l-143 -268z" />
<glyph unicode="U" horiz-adv-x="1503" d="M213 406q0 81 18 173l101 531q10 51 17 92t13 74q5 26 -18 34l-131 39l8 51q85 -2 158.5 -3t142.5 -1q72 0 145.5 1t151.5 3l-6 -51l-124 -37q-23 -6 -29 -31q-7 -35 -14.5 -76.5t-16.5 -90.5l-97 -517q-23 -124 -23 -208q0 -147 69 -225.5t204 -78.5q91 0 155 35t108 95 t71.5 141.5t46.5 174.5l110 583q9 49 16 90.5t13 76.5q3 25 -20 31l-124 34l8 54q72 -2 128.5 -3t101.5 -1q46 0 102 1t125 3l-6 -51l-139 -39q-25 -7 -31 -34q-7 -33 -15 -74t-18 -92l-97 -505q-30 -152 -73.5 -271t-113 -200.5t-172 -124t-250.5 -42.5 q-236 0 -365.5 111.5t-129.5 327.5z" />
<glyph unicode="V" horiz-adv-x="1358" d="M133 1348l7 51q163 -3 308 -3q140 0 314 3l-5 -51l-97 -28q-21 -7 -34.5 -18t-13.5 -43q0 -31 15 -120l122 -743l422 740q32 57 52 96t20 56q0 20 -34 31l-94 27l9 53q136 -3 248 -3t213 3l-6 -51l-111 -31q-48 -17 -74.5 -48t-46.5 -64l-715 -1209l-106 -8l-209 1202 q-6 34 -12.5 57.5t-14.5 36.5q-16 26 -51 36z" />
<glyph unicode="W" horiz-adv-x="1975" d="M128 1348l7 51q82 -2 161 -2.5t152 -0.5q138 0 312 3l-5 -51l-97 -28q-21 -7 -34.5 -18t-13.5 -43q0 -16 3 -46t8 -74l70 -568l12 -127l65 127l444 830l102 9l104 -838l13 -128l62 128l288 563q30 59 48.5 97.5t18.5 55.5q0 21 -34 31l-94 27l9 53q69 -2 127 -2.5 t115 -0.5t113.5 0.5t107.5 2.5l-6 -51l-111 -31q-25 -7 -43 -19t-31.5 -27t-24 -32t-19.5 -34l-636 -1206l-122 -11l-108 813l-12 117l-60 -117l-432 -802l-117 -11l-159 1202q-4 28 -7.5 49.5t-11 37.5t-21 26.5t-37.5 16.5z" />
<glyph unicode="X" horiz-adv-x="1371" d="M-92 -3l5 51l107 31q41 12 72.5 39t66.5 68l433 497l-252 541q-9 20 -17.5 36t-19 28t-23.5 20.5t-31 13.5l-94 27l8 51q68 -2 144 -3t163 -1q78 0 155 1t161 3l-5 -51l-86 -25q-49 -13 -49 -52q0 -33 36 -109l132 -282l258 302q21 25 34 42t20 29t9 20t2 16q0 23 -33 32 l-83 24l7 54q58 -2 117.5 -3t122.5 -1q61 0 117 1t107 3l-5 -51l-108 -32q-47 -14 -79.5 -45t-69.5 -74l-367 -421l274 -588q12 -26 21.5 -45t19.5 -32.5t23.5 -22t33.5 -14.5l95 -27l-8 -51q-134 3 -285 3q-156 0 -339 -3l6 51l90 25q43 12 43 55q0 29 -36 106l-161 346 l-314 -368q-20 -23 -32 -39t-19.5 -28t-10 -20.5t-2.5 -16.5q0 -24 38 -35l77 -23l-8 -53q-116 3 -240 3q-110 0 -221 -3z" />
<glyph unicode="Y" horiz-adv-x="1261" d="M104 1349l5 51q123 -4 306 -4q146 0 320 4l-2 -51l-100 -26q-23 -5 -35 -17t-12 -33q0 -27 33 -110l157 -410l279 388q35 48 60.5 86.5t25.5 59.5q0 25 -37 35l-88 24l7 54q121 -4 239 -4q113 0 227 4l-5 -51l-118 -32q-39 -11 -62.5 -35t-50.5 -59l-428 -583l-63 -325 q-12 -60 -20.5 -109t-15.5 -89q-3 -25 28 -34l122 -35l-9 -51q-170 3 -312 3q-143 0 -302 -3l5 51l135 37q27 7 34 31q8 40 18 89.5t22 109.5l59 313l-222 567q-26 61 -44 88t-55 38z" />
<glyph unicode="Z" horiz-adv-x="1228" d="M-22 -3l4 50l949 1248h-501l-109 -243l-57 -8l6 348l8 8q254 -4 476 -4h253q163 0 308 4l-5 -51l-948 -1246h534l187 292l60 9l-94 -400l-7 -7q-303 3 -523 3h-278q-140 0 -263 -3z" />
<glyph unicode="[" horiz-adv-x="728" d="M38 -356l391 1905h425l-8 -51l-261 -57l-346 -1689l235 -57l-9 -51h-427z" />
<glyph unicode="\" horiz-adv-x="825" d="M207 1426h140l390 -1652h-140z" />
<glyph unicode="]" horiz-adv-x="728" d="M-79 -356l9 51l261 57l346 1689l-235 57l8 51h427l-391 -1905h-425z" />
<glyph unicode="^" d="M135 562l390 834h141l390 -834h-149l-314 678l-313 -678h-145z" />
<glyph unicode="_" horiz-adv-x="1024" d="M-80 -178h1024v-90h-1024v90z" />
<glyph unicode="`" horiz-adv-x="840" d="M0 944zM295 1422h232l50 -378h-84z" />
<glyph unicode="a" horiz-adv-x="1185" d="M71 343q0 253 172.5 427t435.5 174q116 0 250 -37q74 13 147 35l17 -11q-37 -122 -75 -312l-90 -445q-5 -23 -5 -38q0 -21 8.5 -33.5t27 -20t48 -9.5t72.5 -2l-7 -47q-175 -42 -264 -42q-75 0 -117.5 33.5t-42.5 96.5v20q-181 -159 -261 -159q-136 0 -226 104.5 t-90 265.5zM360 380q0 -101 31.5 -177.5t72.5 -76.5q56 0 198 107l122 594q-54 25 -123 25q-131 0 -216 -150t-85 -322z" />
<glyph unicode="b" horiz-adv-x="1178" d="M84 38q30 116 77 348l97 476l101 490l-166 24l1 43q263 41 462 87l12 -12q-9 -38 -20 -86.5t-23.5 -106t-26 -122.5t-28.5 -134l-44 -212q217 109 286 109q124 0 204.5 -102t80.5 -241q0 -284 -180 -455t-467 -171q-176 0 -366 65zM372 82q48 -12 91 -12q154 0 248.5 144 t94.5 334q0 107 -29.5 176.5t-92.5 69.5q-74 0 -178 -57z" />
<glyph unicode="c" horiz-adv-x="1002" d="M74 362q0 247 182 414t433 167q141 0 267 -46q-37 -145 -65 -295l-50 -8l-77 242q-27 8 -61 8q-151 0 -244 -130.5t-93 -320.5q0 -133 58.5 -206.5t158.5 -73.5q109 0 234 87l34 -50q-172 -177 -390 -177q-168 0 -277.5 104.5t-109.5 284.5z" />
<glyph unicode="d" horiz-adv-x="1190" d="M71 343q0 253 171.5 427t433.5 174q64 0 136 -11l86 419l-166 24l1 43q266 41 465 87l12 -12q-9 -38 -20 -86.5t-23.5 -106t-26 -122.5t-28.5 -134l-116 -559l-63 -312q-5 -23 -5 -38q0 -21 8.5 -33.5t27 -20t48 -9.5t72.5 -2l-7 -47q-175 -42 -264 -42q-75 0 -117 33.5 t-42 96.5v20q-185 -159 -267 -159q-136 0 -226 104.5t-90 265.5zM360 380q0 -101 31.5 -177.5t72.5 -76.5q58 0 204 107l122 594q-59 25 -132 25q-130 0 -214 -150t-84 -322z" />
<glyph unicode="e" horiz-adv-x="1053" d="M71 345q0 255 182 427t441 172q144 0 222 -52.5t78 -152.5q0 -125 -160 -208.5t-472 -98.5q-2 -24 -2 -45q0 -135 55 -205.5t165 -70.5q142 0 287 81l34 -50q-191 -167 -424 -167q-182 0 -294 99t-112 271zM370 512q346 32 346 223q0 53 -24.5 79.5t-62.5 26.5 q-82 0 -156 -91.5t-103 -237.5z" />
<glyph unicode="f" horiz-adv-x="729" d="M-295 -475q23 110 50 210l14 4q114 -131 169 -131q56 0 94 80q19 40 36.5 110t36.5 176l149 836l-148 39l3 43l162 15q62 290 224.5 445t381.5 155q102 0 199 -29q-41 -137 -72 -287l-56 -9l-53 225q-20 5 -52 5q-91 0 -158 -85.5t-116 -337.5l-16 -81h262l-20 -105h-261 l-154 -738q-62 -293 -177 -427t-317 -134q-78 0 -181 21z" />
<glyph unicode="g" horiz-adv-x="1170" d="M-24 -446q32 137 70 252l14 6q256 -198 332 -198q85 0 137.5 101t99.5 325l19 94q-175 -151 -258 -151q-136 0 -227 103t-91 263q0 251 172 423t433 172q128 0 258 -37q76 14 147 35l17 -11q-37 -118 -75 -308l-93 -451q-70 -341 -216 -507t-391 -166q-168 0 -348 55z M361 387q0 -97 31.5 -174t74.5 -77q57 0 203 107l122 584q-56 25 -133 25q-129 0 -213.5 -148.5t-84.5 -316.5z" />
<glyph unicode="h" horiz-adv-x="1252" d="M81 -5l278 1357l-166 24l1 43q266 41 465 87l12 -12q-9 -38 -20 -86.5t-23.5 -106t-26 -122.5t-28.5 -134l-45 -219q196 117 358 117q109 0 169.5 -57.5t60.5 -155.5q0 -43 -11 -92l-100 -474q-2 -8 -3 -15.5t-1 -14.5q0 -21 10 -33t29.5 -17.5t48.5 -7.5t66 -1l-4 -46 q-150 -47 -275 -47q-78 0 -117.5 29t-39.5 95q0 31 8 72l90 418q11 52 11 87q0 60 -27 88.5t-78 28.5q-78 0 -214 -64l-150 -731z" />
<glyph unicode="i" horiz-adv-x="661" d="M103 850l6 46q179 46 291 46q67 0 104.5 -23.5t37.5 -73.5q0 -21 -4 -41l-131 -630q-5 -26 -5 -38q0 -40 33 -52.5t122 -12.5l-6 -47q-171 -42 -276 -42q-74 0 -115.5 29t-41.5 88q0 28 8 70l120 580q8 40 8 52q0 27 -23 38t-128 11zM324 1283q0 70 42 110.5t106 40.5 q61 0 100.5 -37.5t39.5 -102.5q0 -68 -42 -110.5t-105 -42.5q-61 0 -101 40t-40 102z" />
<glyph unicode="j" horiz-adv-x="640" d="M-208 -454q209 194 252.5 301t73.5 253l132 649q8 40 8 52q0 27 -23 38t-128 11l6 46q179 46 291 46q67 0 104.5 -23.5t37.5 -73.5q0 -21 -4 -41l-141 -681q-38 -187 -153.5 -324t-408.5 -308zM328 1283q0 70 42 110.5t106 40.5q61 0 100.5 -37.5t39.5 -102.5 q0 -68 -42 -110.5t-105 -42.5q-61 0 -101 40t-40 102z" />
<glyph unicode="k" horiz-adv-x="1182" d="M85 -5l279 1357l-166 24l1 43q265 40 465 87l12 -12q-18 -75 -43 -192.5t-55 -256.5l-214 -1040zM484 491q172 152 272 256.5t138 171.5q31 -1 82 -1q115 0 232 3l-5 -50q-49 -8 -89 -18.5t-74.5 -24.5t-65.5 -34.5t-64 -50.5l-173 -160l220 -409q20 -38 34.5 -59 t31 -33.5t39.5 -19.5t62 -16l-9 -49q-131 3 -254 3q-76 0 -137 -2q-37 106 -96 226.5t-144 266.5z" />
<glyph unicode="l" horiz-adv-x="653" d="M101 102q0 18 10 67l244 1183l-166 24l1 43q266 41 465 87l12 -12q-9 -38 -20 -86.5t-23.5 -106t-26 -122.5t-28.5 -134l-179 -873q-4 -19 -4 -39q0 -32 26.5 -46.5t130.5 -15.5l-6 -47q-173 -42 -276 -42q-81 0 -120.5 30t-39.5 90z" />
<glyph unicode="m" horiz-adv-x="1859" d="M95 -5l155 755q8 40 8 53q0 17 -9.5 26.5t-28.5 14t-47.5 5.5t-65.5 1l6 46q178 46 273 46q69 0 111.5 -25t42.5 -74q0 -2 -0.5 -7t-1.5 -13q195 120 356 120q165 0 213 -130q215 130 386 130q109 0 169.5 -57.5t60.5 -155.5q0 -43 -11 -92l-100 -474q-2 -8 -3 -15.5 t-1 -14.5q0 -21 10 -33t29.5 -17.5t48.5 -7.5t66 -1l-4 -46q-150 -47 -275 -47q-78 0 -117.5 29t-39.5 95q0 31 8 72l90 418q11 52 11 87q0 60 -27 88.5t-78 28.5q-77 0 -210 -65q0 -44 -11 -97l-130 -633l-281 -10l123 601q11 55 11 87q0 60 -25.5 88.5t-76.5 28.5 q-76 0 -207 -64l-149 -731z" />
<glyph unicode="n" horiz-adv-x="1267" d="M95 -5l155 755q8 40 8 53q0 18 -9.5 27t-28.5 13.5t-47.5 5.5t-65.5 1l6 46q180 46 273 46q69 0 111.5 -25t42.5 -74q0 -5 -2 -20q199 120 363 120q109 0 169.5 -57.5t60.5 -155.5q0 -43 -11 -92l-100 -474q-2 -8 -3 -15.5t-1 -14.5q0 -21 10 -33t29.5 -17.5t48.5 -7.5 t66 -1l-4 -46q-150 -47 -275 -47q-78 0 -117.5 29t-39.5 95q0 31 8 72l90 418q11 52 11 87q0 60 -27 88.5t-78 28.5q-78 0 -215 -64l-149 -731z" />
<glyph unicode="o" horiz-adv-x="1201" d="M78 383q0 243 154 402t407 159q216 0 345 -112.5t129 -302.5q0 -240 -156.5 -398t-404.5 -158q-219 0 -346.5 112.5t-127.5 297.5zM371 378q1 -142 51 -222t142 -80q114 0 184 140.5t70 323.5q0 142 -51 221.5t-140 79.5q-111 -1 -184 -137q-72 -135 -72 -321v-5z" />
<glyph unicode="p" horiz-adv-x="1190" d="M-140 -486l6 49l120 34q28 9 32 31q9 37 20.5 91.5t26.5 129.5l185 901q8 40 8 51q0 27 -23 38q-24 11 -128 11l6 46q174 46 285 46q66 0 102.5 -23t36.5 -74l-1 -12h2q215 109 288 109q120 0 201.5 -100.5t81.5 -242.5q0 -276 -175.5 -449.5t-456.5 -173.5q-52 0 -113 8 l-42 -208q-11 -51 -17.5 -85t-9.5 -55q-4 -30 20 -36l145 -37l-10 -49q-197 3 -300 3q-121 0 -290 -3zM383 77q43 -8 78 -8q166 0 261.5 144t95.5 335q0 109 -30 177.5t-92 68.5q-75 0 -178 -57z" />
<glyph unicode="q" horiz-adv-x="1175" d="M71 343q0 253 171.5 427t433.5 174q124 0 258 -37q74 13 147 35l17 -11q-37 -122 -75 -312l-160 -782q-34 -165 -41 -207q-4 -27 17 -34l121 -33l-9 -49q-164 3 -283 3q-122 0 -296 -3l6 49l132 34q26 8 33 31q25 119 102 497q-178 -152 -258 -152q-136 0 -226 104.5 t-90 265.5zM360 380q0 -101 31.5 -177.5t72.5 -76.5q58 0 203 107l122 594q-58 25 -131 25q-130 0 -214 -150t-84 -322z" />
<glyph unicode="r" horiz-adv-x="901" d="M95 -5l155 755q8 43 8 53q0 17 -9.5 26.5t-28.5 14t-47.5 5.5t-65.5 1l6 46q178 46 273 46q69 0 111 -25t42 -74q0 -9 -1 -22q184 123 369 123l7 -9q-36 -157 -69 -330l-62 -10q-18 109 -44 148.5t-75 39.5q-53 0 -141 -44l-149 -734z" />
<glyph unicode="s" horiz-adv-x="932" d="M17 39q17 60 33 126t30 135l50 8l65 -216q73 -21 144 -21q92 0 146 38t54 110q0 31 -16 54t-42.5 42t-60.5 35.5t-70 33.5q-42 19 -81.5 42t-71.5 54t-51.5 72t-19.5 96q0 140 122.5 217.5t328.5 77.5q157 0 303 -47q-15 -51 -30.5 -115t-29.5 -137l-49 -9l-69 195 q-61 16 -112 16q-101 0 -156 -34.5t-55 -102.5q0 -29 15.5 -51t42.5 -40.5t61 -35t71 -33.5q44 -21 88 -45t77.5 -55.5t55.5 -73t22 -97.5q0 -146 -115.5 -225.5t-318.5 -79.5q-96 0 -189.5 18t-171.5 48z" />
<glyph unicode="t" horiz-adv-x="848" d="M119 849l3 43l176 16l148 246l165 29l12 -7q-46 -189 -63 -268h281l-20 -105h-285q-29 -128 -58.5 -259.5t-56.5 -264.5q-9 -45 -9 -78q0 -57 28 -80t79 -23q69 0 182 31l10 -65q-185 -90 -349 -90q-112 0 -174 46t-62 137q0 30 6 66q18 95 49.5 239t79.5 350z" />
<glyph unicode="u" horiz-adv-x="1266" d="M92 850l6 46q175 46 291 46q67 0 103.5 -23t36.5 -74q0 -24 -4 -41l-100 -454q-9 -44 -9 -81q0 -68 29.5 -105.5t80.5 -37.5q90 0 215 114l140 672l281 10l-153 -742q-6 -29 -6 -47q0 -20 7.5 -32t25.5 -18.5t47.5 -8.5t73.5 -3l-6 -47q-175 -42 -262 -42 q-75 0 -118.5 34.5t-43.5 98.5q0 9 1 19q-166 -162 -327 -162q-118 0 -189.5 70.5t-71.5 192.5q0 27 3.5 56t9.5 60l82 398q8 39 8 52q0 27 -24 38t-127 11z" />
<glyph unicode="v" horiz-adv-x="1044" d="M-6 850l6 46q178 46 265 46q60 0 95 -15t52 -53q9 -21 19.5 -57.5t21 -81.5t20.5 -95.5t19 -98.5t16 -91t11 -74l13 -116q94 136 150.5 288.5t56.5 325.5q75 17 142.5 35.5t130.5 37.5l18 -11q-1 -68 -32 -152t-81 -174t-112.5 -181t-126.5 -173t-124.5 -151t-104.5 -114 l-137 -14q-20 156 -68 428t-86 379q-6 16 -14 28t-24.5 20.5t-46 13t-79.5 4.5z" />
<glyph unicode="w" horiz-adv-x="1554" d="M-7 850l6 46q175 46 265 46q60 0 95 -15t52 -53q9 -21 19.5 -57.5t21 -81.5t20.5 -95.5t19 -98.5t16 -91t11 -74l15 -116q116 152 198 304q-15 78 -32.5 157.5t-38.5 164.5q133 27 240 52l17 -6q61 -217 117 -556l16 -116q91 137 143 288.5t52 325.5q75 17 142.5 35.5 t130.5 37.5l18 -11q-1 -68 -31.5 -152t-79 -174t-109.5 -181t-124 -173.5t-121.5 -151t-102.5 -113.5l-137 -14q-17 112 -33.5 216.5t-35.5 209.5q-170 -259 -312 -412l-137 -14q-9 64 -18.5 124.5t-19.5 119.5t-20.5 118t-20.5 121q-5 30 -14 74t-19.5 90t-22 89t-21.5 71 q-6 16 -13.5 28.5t-24.5 20.5t-46.5 12.5t-79.5 4.5z" />
<glyph unicode="x" horiz-adv-x="1107" d="M-15 -13q28 109 67 225l10 5q63 -16 111 -16q80 0 138.5 51.5t129.5 159.5q-30 62 -59 122.5t-53.5 111.5t-43 88t-26.5 52q-12 22 -26.5 34.5t-34 18.5t-45.5 7.5t-63 3.5l6 46q170 46 270 46q37 0 62 -7.5t42.5 -21.5t30.5 -34.5t26 -46.5q20 -43 44 -92.5t50 -103.5 q133 183 213.5 246t192.5 63q45 0 85 -5q-31 -106 -77 -226l-9 -4q-61 12 -105 12q-71 0 -121.5 -40.5t-127.5 -150.5q25 -52 49.5 -104t48 -101t44.5 -93.5t39 -81.5q13 -27 26.5 -42.5t33 -24t47.5 -11t70 -3.5l-6 -46q-161 -42 -249 -42q-35 0 -62.5 5t-49 17.5t-39 34 t-32.5 54.5q-15 31 -41.5 87t-58.5 124q-144 -208 -226.5 -267t-196.5 -59q-48 0 -84 9z" />
<glyph unicode="y" horiz-adv-x="1065" d="M-44 -441q60 7 109.5 22t84.5 43q21 16 46.5 40.5t60 66.5t81 106.5t109.5 160.5l-56 13q-7 54 -22 126t-35 150t-43 157.5t-46 147.5t-44 119.5t-36 74.5q-16 24 -35 36.5t-41.5 18t-49 7t-56.5 2.5l6 46q171 46 266 46q54 0 96 -16t62 -52q15 -27 37 -79t45 -120.5 t46.5 -148.5t41.5 -163l19 -108q78 152 121.5 305.5t48.5 313.5q148 41 269 77l22 -15q-39 -108 -80.5 -203t-84 -179t-85 -158.5t-82.5 -140.5q-42 -69 -78.5 -129.5t-68.5 -116.5q-26 -44 -53.5 -99.5t-54 -113t-48.5 -112t-37 -94.5q-12 -33 -29.5 -51.5t-42.5 -27.5 t-59.5 -11t-80.5 -2q-125 0 -218 10z" />
<glyph unicode="z" horiz-adv-x="1041" d="M0 30q192 234 319.5 398t304.5 399h-326l-83 -209l-51 -7l-19 301l6 10q203 -4 420 -4q226 0 437 4l3 -32q-166 -203 -315 -398.5t-301 -397.5h329l145 215l55 7l-58 -312l-9 -7q-181 3 -429 3q-252 0 -423 -3z" />
<glyph unicode="{" horiz-adv-x="722" d="M107 577l6 42q51 10 87 23.5t61 37t41 60t28 92.5l91 441q17 84 51 139.5t87 88t127.5 45.5t173.5 13l-10 -54q-73 -15 -115 -35.5t-66 -50t-35 -70.5t-23 -98l-66 -325q-13 -63 -31.5 -116t-49.5 -94t-77 -70.5t-113 -46.5l-2 -6q42 -13 71.5 -30.5t47.5 -40.5t26 -53.5 t8 -69.5q0 -28 -4 -61.5t-12 -71.5l-66 -323q-8 -38 -13.5 -68t-5.5 -55t7 -45t24.5 -35.5t47 -28t73.5 -22.5l-9 -54q-76 1 -138 8t-105.5 28t-67 59.5t-23.5 102.5q0 42 10 88l91 443q10 46 10 83q0 33 -9.5 54.5t-27.5 36t-43.5 23.5t-56.5 16z" />
<glyph unicode="|" horiz-adv-x="722" d="M320 -508v2033h142v-2033h-142z" />
<glyph unicode="}" horiz-adv-x="723" d="M-88 -365l10 54q73 15 115 35.5t66 50t35 70.5t23 98l66 325q13 63 31.5 116t49.5 94t77 70.5t113 46.5l2 6q-42 13 -71.5 30.5t-47.5 40.5t-26 53.5t-8 69.5q0 28 4 61.5t12 71.5l66 323q8 38 13.5 68t5.5 55t-7 45t-24.5 35.5t-47 28t-73.5 22.5l9 54q76 -1 138 -8 t105.5 -28t67 -59.5t23.5 -102.5q0 -42 -10 -88l-91 -443q-10 -46 -10 -83q0 -33 9.5 -54.5t27.5 -36t43.5 -23.5t56.5 -16l-6 -42q-51 -10 -87 -23.5t-61 -37t-41 -60t-28 -92.5l-91 -441q-17 -84 -51 -139.5t-87 -88t-127.5 -45.5t-173.5 -13z" />
<glyph unicode="~" d="M73 366v141q138 88 259 88q66 0 127.5 -20t122.5 -44q57 -23 111 -42t112 -19q98 0 232 87v-141q-130 -83 -251 -83q-66 0 -128.5 20t-123.5 44q-58 22 -112 40t-111 18q-100 0 -238 -89z" />
<glyph unicode="&#xa2;" horiz-adv-x="929" d="M57 372q0 221 158 382t406 184l30 139l91 8l-32 -146q119 -5 229 -45l-70 -295l-50 -8l-72 242q-28 8 -58 8l-155 -725q14 -2 32 -2q109 0 234 87l34 -50q-147 -152 -330 -173l-27 -129l-91 -8l28 134q-167 15 -262 123.5t-95 273.5zM345 403q0 -177 106 -255l146 680 q-124 -42 -188 -160t-64 -265z" />
<glyph unicode="&#xa3;" horiz-adv-x="1083" d="M-47 -3l10 80q125 35 188.5 86t89.5 212l19 118h-149l20 105h147l15 92q12 73 45.5 140.5t92 119.5t144 83.5t200.5 31.5q134 0 256 -39l4 -10l-99 -282l-46 -9l-27 226q-43 21 -99 21q-54 0 -91 -21.5t-62 -57.5t-40.5 -84.5t-24.5 -102.5l-19 -108h241l-20 -105h-240 q-32 -183 -229 -310v-6h545l108 180l59 8l-89 -361l-8 -7q-218 3 -467 3q-304 0 -474 -3z" />
<glyph unicode="&#xa5;" horiz-adv-x="1076" d="M99 995l4 47q125 -3 258 -3q137 0 301 3l-2 -47l-92 -25q-22 -6 -33 -16t-11 -31q0 -13 6.5 -38.5t22.5 -64.5l89 -222l145 201q33 46 56 82t23 55q0 24 -35 33l-80 23l6 50q114 -3 225 -3q97 0 183 3l-5 -47l-81 -31q-21 -8 -35.5 -16.5t-26 -18.5t-21.5 -22.5 t-23 -30.5l-230 -311h202l-18 -95h-243l-22 -112h244l-19 -95h-244q-18 -90 -27 -153q-3 -23 26 -32l115 -33l-8 -48q-161 3 -294 3q-135 0 -283 -3l4 48l128 35q26 8 32 29q8 32 15.5 70t16.5 84h-250l19 95h247l21 112h-248l18 95h197l-115 285q-13 32 -23 52t-20.5 33 t-22.5 20t-27 13z" />
<glyph unicode="&#xa8;" horiz-adv-x="840" d="M0 944zM225 1285q0 64 39 101.5t102 37.5q58 0 94.5 -34.5t36.5 -95.5q0 -64 -39 -102.5t-101 -38.5q-58 0 -95 36.5t-37 95.5zM641 1285q0 64 39 101.5t102 37.5q58 0 94.5 -34.5t36.5 -95.5q0 -64 -39 -102.5t-101 -38.5q-58 0 -95 36.5t-37 95.5z" />
<glyph unicode="&#xa9;" horiz-adv-x="1631" d="M129 680q0 308 207 507t515 199q307 0 511 -201t204 -510q0 -296 -204 -494.5t-514 -198.5t-514.5 198.5t-204.5 499.5zM250 684q0 -266 167.5 -436.5t434.5 -170.5q262 0 428 168t166 434q0 271 -168 441.5t-429 170.5q-267 0 -433 -171t-166 -436zM436 681 q0 186 135 290.5t348 104.5q114 0 234 -30l4 -7l-48 -258l-40 -6l-56 211q-42 18 -89 18q-116 0 -179.5 -81.5t-63.5 -215.5q0 -145 84.5 -227t224.5 -82q81 0 170 42l12 -44q-136 -99 -303 -99q-183 0 -308 104t-125 280z" />
<glyph unicode="&#xab;" horiz-adv-x="1044" d="M90 451v37q210 157 424 391l53 -29q-88 -177 -251 -377q104 -194 168 -384l-54 -28q-169 237 -340 390zM510 451v37q210 157 424 391l53 -29q-88 -177 -251 -377q104 -194 168 -384l-54 -28q-169 237 -340 390z" />
<glyph unicode="&#xad;" horiz-adv-x="681" d="M64 424l29 146h516l-29 -146h-516z" />
<glyph unicode="&#xae;" horiz-adv-x="848" d="M175 1060q0 158 102.5 253.5t258.5 95.5q161 0 259 -93t98 -253q0 -163 -99.5 -259.5t-263.5 -96.5q-160 0 -257.5 96.5t-97.5 256.5zM249 1061q0 -140 78 -221t206 -81q130 0 207.5 77.5t77.5 224.5q0 136 -79 216t-208 80q-125 0 -203.5 -79t-78.5 -217zM338 913l49 14 q10 4 11 13q1 16 1 37v45v102v39t-1 31q-1 12 -12 15l-47 13l-1 21q26 -1 51 -1.5t50 -0.5q15 0 47.5 2t54.5 2q147 0 147 -88q0 -61 -79 -91q29 -43 47.5 -75.5t41.5 -54.5q12 -12 21 -16.5t30 -8.5l2 -18q-28 -6 -60 -6q-28 0 -45 4.5t-32 16.5q-13 11 -32.5 43.5 l-37.5 62.5q-11 22 -17 27t-20 5h-17v-25v-44t1 -36q1 -15 9 -17l40 -11l1 -19q-25 1 -47.5 1h-45.5h-54.5t-53.5 -1zM490 1080q9 -1 25 -1q80 0 80 66q0 34 -18 50t-58 16q-11 0 -29 -2v-129z" />
<glyph unicode="&#xb4;" horiz-adv-x="840" d="M0 944zM468 1044l155 378h257l-328 -378h-84z" />
<glyph unicode="&#xb8;" horiz-adv-x="840" d="M148 -189l147 189h91l-79 -106q101 -50 101 -134q0 -112 -210 -254l-38 41q98 80 98 148q0 72 -106 108z" />
<glyph unicode="&#xbb;" horiz-adv-x="1044" d="M57 90q88 177 251 377q-104 194 -168 384l54 28q169 -237 340 -390v-37q-210 -157 -424 -391zM477 90q88 177 251 377q-104 194 -168 384l54 28q169 -237 340 -390v-37q-210 -157 -424 -391z" />
<glyph unicode="&#x2c6;" horiz-adv-x="840" d="M0 944zM226 1044l264 378h200l144 -378h-88l-179 224l-249 -224h-92z" />
<glyph unicode="&#x2da;" horiz-adv-x="840" d="M0 944zM328 1210q0 99 80.5 162.5t186.5 63.5q86 0 145.5 -47t59.5 -122q0 -100 -77 -161.5t-188 -61.5q-96 0 -151.5 45t-55.5 121zM459 1217q0 -44 23.5 -73.5t66.5 -29.5q55 0 87.5 40.5t32.5 106.5q0 46 -22.5 75.5t-65.5 29.5q-57 0 -89.5 -42t-32.5 -107z" />
<glyph unicode="&#x2dc;" horiz-adv-x="840" d="M0 944zM226 1152q75 118 127.5 166t108.5 48q31 0 59 -10q28 -11 78 -40q23 -13 39.5 -22.5t30.5 -16t26 -9.5t26 -3q33 0 56.5 16.5t85.5 83.5l55 -38q-124 -220 -240 -220q-39 0 -72 15.5t-73 39.5q-19 11 -33 19.5t-27.5 14.5t-25.5 9t-25 3q-31 0 -56.5 -17 t-87.5 -83z" />
<glyph unicode="&#x2000;" horiz-adv-x="786" />
<glyph unicode="&#x2001;" horiz-adv-x="1573" />
<glyph unicode="&#x2002;" horiz-adv-x="786" />
<glyph unicode="&#x2003;" horiz-adv-x="1573" />
<glyph unicode="&#x2004;" horiz-adv-x="524" />
<glyph unicode="&#x2005;" horiz-adv-x="393" />
<glyph unicode="&#x2006;" horiz-adv-x="262" />
<glyph unicode="&#x2007;" horiz-adv-x="262" />
<glyph unicode="&#x2008;" horiz-adv-x="196" />
<glyph unicode="&#x2009;" horiz-adv-x="314" />
<glyph unicode="&#x200a;" horiz-adv-x="87" />
<glyph unicode="&#x2010;" horiz-adv-x="681" d="M64 424l29 146h516l-29 -146h-516z" />
<glyph unicode="&#x2011;" horiz-adv-x="681" d="M64 424l29 146h516l-29 -146h-516z" />
<glyph unicode="&#x2012;" horiz-adv-x="681" d="M64 424l29 146h516l-29 -146h-516z" />
<glyph unicode="&#x2013;" horiz-adv-x="1024" d="M58 433l27 128h884l-27 -128h-884z" />
<glyph unicode="&#x2014;" horiz-adv-x="2048" d="M58 433l27 128h1908l-27 -128h-1908z" />
<glyph unicode="&#x2018;" horiz-adv-x="451" d="M197 1090q0 234 321 435l38 -55q-177 -124 -177 -255q0 -92 91 -147q-5 -60 -44 -97t-95 -37q-59 0 -96.5 42t-37.5 114z" />
<glyph unicode="&#x2019;" horiz-adv-x="451" d="M174 971q177 124 177 255q0 92 -91 147q5 60 44 97t95 37q59 0 96.5 -42t37.5 -114q0 -234 -321 -435z" />
<glyph unicode="&#x201a;" horiz-adv-x="491" d="M-35 -288q177 124 177 255q0 92 -91 147q5 60 44 97t95 37q59 0 96.5 -42t37.5 -114q0 -234 -321 -435z" />
<glyph unicode="&#x201c;" horiz-adv-x="801" d="M188 1090q0 234 321 435l38 -55q-177 -124 -177 -255q0 -92 91 -147q-5 -60 -44 -97t-95 -37q-59 0 -96.5 42t-37.5 114zM557 1090q0 234 321 435l38 -55q-177 -124 -177 -255q0 -92 91 -147q-5 -60 -44 -97t-95 -37q-59 0 -96.5 42t-37.5 114z" />
<glyph unicode="&#x201d;" horiz-adv-x="801" d="M165 971q177 124 177 255q0 92 -91 147q5 60 44 97t95 37q59 0 96.5 -42t37.5 -114q0 -234 -321 -435zM534 971q177 124 177 255q0 92 -91 147q5 60 44 97t95 37q59 0 96.5 -42t37.5 -114q0 -234 -321 -435z" />
<glyph unicode="&#x201e;" horiz-adv-x="846" d="M-45 -298q177 124 177 255q0 92 -91 147q5 60 44 97t95 37q59 0 96.5 -42t37.5 -114q0 -234 -321 -435zM324 -298q177 124 177 255q0 92 -91 147q5 60 44 97t95 37q59 0 96.5 -42t37.5 -114q0 -234 -321 -435z" />
<glyph unicode="&#x2022;" horiz-adv-x="642" d="M140 732q0 97 61 157.5t162 60.5q95 0 157 -60.5t62 -157.5t-62 -159t-157 -62q-101 0 -162 62t-61 159z" />
<glyph unicode="&#x2026;" horiz-adv-x="1540" d="M78 130q0 70 42.5 112.5t111.5 42.5q66 0 109 -42.5t43 -112.5q0 -69 -43 -113t-109 -44q-69 0 -111.5 44t-42.5 113zM590 130q0 70 42.5 112.5t111.5 42.5q66 0 109 -42.5t43 -112.5q0 -69 -43 -113t-109 -44q-69 0 -111.5 44t-42.5 113zM1102 130q0 70 42.5 112.5 t111.5 42.5q66 0 109 -42.5t43 -112.5q0 -69 -43 -113t-109 -44q-69 0 -111.5 44t-42.5 113z" />
<glyph unicode="&#x202f;" horiz-adv-x="314" />
<glyph unicode="&#x2039;" horiz-adv-x="624" d="M90 451v37q210 157 424 391l53 -29q-88 -177 -251 -377q104 -194 168 -384l-54 -28q-169 237 -340 390z" />
<glyph unicode="&#x203a;" horiz-adv-x="624" d="M57 90q88 177 251 377q-104 194 -168 384l54 28q169 -237 340 -390v-37q-210 -157 -424 -391z" />
<glyph unicode="&#x205f;" horiz-adv-x="393" />
<glyph unicode="&#x20ac;" horiz-adv-x="1056" d="M13 367l19 95h119q4 60 16 112h-115l18 95h128q78 187 244.5 291.5t384.5 104.5q140 0 261 -39l3 -9l-94 -262l-52 -8l-19 205q-38 19 -96 19q-108 0 -200 -76.5t-145 -225.5h381l-18 -95h-387q-11 -66 -12 -112h378l-19 -95h-355q18 -131 89.5 -197.5t184.5 -66.5 q106 0 222 54l16 -48q-185 -135 -377 -135q-186 0 -298 96t-136 297h-141z" />
<glyph unicode="&#x2122;" horiz-adv-x="1422" d="M245 1394l3 4q133 -2 235 -2h31q101 0 235 2l4 -4l-35 -189l-24 -5l-31 144h-104v-285q0 -63 1 -105q1 -12 15 -15l74 -22l1 -27q-78 2 -153 2t-150 -2l-2 27l74 22q13 3 14 15q1 42 1 105v285h-105l-46 -139l-24 -5zM790 917l65 19q15 5 15 17q1 44 1 108v181 q0 53 -1 90q0 14 -13 17l-67 21v27q68 -2 107 -2q62 0 116 2l163 -346l159 347q52 -2 92 -2q61 0 128 2l2 -27l-67 -21q-13 -3 -14 -17q-1 -37 -1 -90v-182q0 -64 1 -108q1 -12 15 -17l65 -19l1 -27q-71 2 -146 2q-74 0 -136 -2l-2 27l62 18q13 5 13 19q1 43 1 107v233 l-3 -7l-182 -395l-48 -5l-184 389v-215q0 -64 1 -107q0 -14 15 -19l60 -18l1 -27q-65 2 -107 2t-111 -2z" />
<glyph unicode="&#x25fc;" horiz-adv-x="945" d="M0 0v945h945v-945h-945z" />
</font>
</defs>
</svg>
