<?xml version="1.0" standalone="no"?>
<!DOCTYPE svg PUBLIC "-//W3C//DTD SVG 1.1//EN" "http://www.w3.org/Graphics/SVG/1.1/DTD/svg11.dtd" >
<svg xmlns="http://www.w3.org/2000/svg">
<metadata></metadata>
<defs>
<font id="constantiabold" horiz-adv-x="1130" >
<font-face units-per-em="2048" ascent="1538" descent="-510" />
<missing-glyph horiz-adv-x="490" />
<glyph horiz-adv-x="0" />
<glyph horiz-adv-x="0" />
<glyph unicode="&#xd;" horiz-adv-x="0" />
<glyph unicode=" "  horiz-adv-x="490" />
<glyph unicode="&#x09;" horiz-adv-x="490" />
<glyph unicode="&#xa0;" horiz-adv-x="490" />
<glyph unicode="!" horiz-adv-x="624" d="M205 125q0 68 42.5 109t111.5 41q67 0 110 -41t43 -109t-43 -110.5t-110 -42.5q-69 0 -111.5 42.5t-42.5 110.5zM207 1356l312 12l9 -8l-129 -940l-78 -4z" />
<glyph unicode="&#x22;" horiz-adv-x="746" d="M90 1487h226l-100 -485h-75zM420 1487h226l-100 -485h-75z" />
<glyph unicode="#" d="M63 371v145h222l38 251h-198v145h220l58 382h127l-58 -382h269l58 382h126l-58 -382h201v-145h-223l-38 -251h199v-145h-221l-57 -381h-127l58 381h-269l-58 -381h-127l58 381h-200zM412 516h269l38 251h-269z" />
<glyph unicode="$" horiz-adv-x="891" d="M56 33l45 286l56 9l51 -239q65 -24 166 -26l8 347q-183 68 -253.5 144t-70.5 185q0 123 96.5 211t257.5 110l3 114l92 8l-3 -117q124 -1 287 -42l5 -7l-52 -251l-49 -8l-49 202q-58 19 -144 22l-7 -326q183 -70 261.5 -146t78.5 -193q0 -131 -98.5 -222t-272.5 -115 l-3 -130l-92 -8l3 133h-7q-154 0 -303 52zM272 839q0 -87 132 -147l6 284q-138 -27 -138 -137zM466 69q154 30 154 145q0 98 -147 160z" />
<glyph unicode="%" horiz-adv-x="1682" d="M65 1059q0 210 89 320.5t237 110.5q145 0 228.5 -102t83.5 -303q0 -219 -91 -331t-235 -112q-143 0 -227.5 106.5t-84.5 310.5zM269 1079q0 -370 118 -370q48 1 80 74t32 285q0 187 -30.5 272t-87.5 85q-51 0 -81.5 -73t-30.5 -273zM323 10l946 1477l95 -67l-947 -1477z M994 401q0 210 89 320.5t237 110.5q145 0 228.5 -102t83.5 -303q0 -219 -91 -331t-235 -112q-143 0 -227.5 106.5t-84.5 310.5zM1198 421q0 -370 118 -370q48 1 80 74t32 285q0 187 -30.5 272t-87.5 85q-51 0 -81.5 -73t-30.5 -273z" />
<glyph unicode="&#x26;" horiz-adv-x="1487" d="M88 349q0 241 288 382q-89 100 -127.5 179t-38.5 171q0 144 119 229.5t288 85.5q154 0 260.5 -75t106.5 -203q0 -199 -298 -346l379 -435q65 114 65 234q0 61 -5 91q-3 19 -12.5 27t-28.5 12l-124 25l-3 53q57 -2 114.5 -3t125.5 -1q58 0 103.5 1t85.5 3l4 -52l-129 -31 q-21 -5 -18 -23q6 -34 6 -86q0 -184 -107 -339q77 -99 134 -146q27 -22 60.5 -31t69.5 -9q28 0 61 6l9 -55q-108 -45 -223 -45q-178 0 -298 105q-167 -101 -364 -101q-211 0 -357 102t-146 275zM373 427q0 -141 78.5 -232t213.5 -91q109 0 212 52l-436 500q-68 -89 -68 -229 zM465 1141q0 -114 108 -239l53 -61q103 97 103 264q0 89 -35 142t-96 53t-97 -44.5t-36 -114.5z" />
<glyph unicode="'" horiz-adv-x="416" d="M90 1487h226l-100 -485h-75z" />
<glyph unicode="(" horiz-adv-x="790" d="M150 595q0 593 494 978l46 -40q-319 -355 -319 -934q0 -583 319 -938l-46 -40q-494 385 -494 974z" />
<glyph unicode=")" horiz-adv-x="790" d="M100 -339q319 355 319 934q0 583 -319 938l46 40q494 -385 494 -974q0 -593 -494 -978z" />
<glyph unicode="*" horiz-adv-x="902" d="M110 1141l51 160l274 -166l-37 308h168l-73 -312l282 131l52 -159l-320 -27l212 -228l-136 -96l-124 292l-151 -271l-136 98l243 210z" />
<glyph unicode="+" d="M83 391v141h412v412h141v-412h411v-141h-411v-411h-141v411h-412z" />
<glyph unicode="," horiz-adv-x="586" d="M100 -269q180 133 180 266q0 118 -131 184q0 74 43 115t110 41q72 0 119 -56t47 -141q0 -130 -79.5 -245.5t-237.5 -224.5z" />
<glyph unicode="-" horiz-adv-x="716" d="M80 424v146h556v-146h-556z" />
<glyph unicode="." horiz-adv-x="586" d="M140 130q0 70 44 112.5t115 42.5q68 0 112.5 -42.5t44.5 -112.5q0 -69 -44.5 -113t-112.5 -44q-71 0 -115 44t-44 113z" />
<glyph unicode="/" horiz-adv-x="825" d="M100 -226l505 1652h140l-505 -1652h-140z" />
<glyph unicode="0" horiz-adv-x="1182" d="M80 450q0 233 140.5 366.5t383.5 133.5q234 0 366 -122t132 -343q0 -240 -143 -375.5t-380 -135.5q-233 0 -366 126t-133 350zM380 476q0 -199 55 -303t160 -104q110 0 158.5 97t48.5 298q0 204 -55 299t-161 95q-105 0 -155.5 -88.5t-50.5 -293.5z" />
<glyph unicode="1" horiz-adv-x="748" d="M36 884q258 32 493 66l9 -8q-12 -176 -12 -361v-246q0 -66 0.5 -119t1.5 -94q2 -29 28 -36l159 -41l3 -48q-185 3 -328 3q-144 0 -328 -3l-4 48l163 41q27 8 27 32q1 41 1.5 85.5t0.5 94.5v160q0 101 -1 189.5t-3 166.5l-205 20z" />
<glyph unicode="2" horiz-adv-x="993" d="M40 119q85 57 163 108.5t136 92.5q62 43 103 80.5t65 73t34 70t10 72.5q0 88 -65.5 139t-164.5 51q-101 0 -217 -63l-38 80q187 127 385 127q165 0 272 -81.5t107 -201.5q0 -73 -32.5 -128t-98 -106.5t-164.5 -107t-232 -128.5l1 -5h487l74 155l58 8l-20 -351l-7 -7 q-196 3 -427 3q-212 0 -422 -3z" />
<glyph unicode="3" horiz-adv-x="935" d="M-4 -372q166 10 280 43t184.5 82.5t101.5 113t31 133.5q0 120 -84.5 188t-213.5 68q-64 0 -121 -12l-6 89q182 22 273 88.5t91 180.5q0 95 -65.5 154t-168.5 59q-117 0 -247 -75l-38 80q181 130 422 130q172 0 279.5 -76.5t107.5 -202.5q0 -223 -348 -328v-4 q200 0 309.5 -79t109.5 -219q0 -112 -58 -204t-170.5 -157.5t-278.5 -102t-382 -37.5z" />
<glyph unicode="4" horiz-adv-x="1072" d="M10 85q81 98 167 205t172.5 216.5t170.5 219t162 214.5l171 10q-6 -224 -6 -418v-398h219l4 -142q-101 3 -223 3v-118q0 -159 5 -277q-147 -14 -269 -31l-14 7q2 120 2 286v133h-248q-125 0 -306 -3zM180 134h391v500q-49 -58 -100 -120.5t-101 -126.5t-98.5 -128 t-91.5 -125z" />
<glyph unicode="5" horiz-adv-x="957" d="M60 -372q127 4 231 30.5t177 72.5t113 109.5t40 142.5q0 129 -83 205.5t-226 76.5q-113 0 -213 -22l-6 7l58 679q173 -4 370 -4q205 0 357 4l6 -8l-25 -235h-606l-23 -233q98 14 204 14q217 0 350 -109.5t133 -282.5q0 -111 -48.5 -207.5t-151.5 -168.5t-263.5 -114.5 t-385.5 -44.5z" />
<glyph unicode="6" horiz-adv-x="1123" d="M43 530q0 370 244 600t663 263l13 -91q-546 -85 -611 -578l1 -1q114 130 312 130q163 0 280 -111t117 -299q0 -208 -147 -338.5t-356 -130.5q-227 0 -371.5 156.5t-144.5 399.5zM344 453q0 -183 60.5 -287.5t176.5 -104.5q95 0 142 82.5t47 218.5q0 179 -63 277.5 t-162 98.5q-92 0 -146.5 -75.5t-54.5 -209.5z" />
<glyph unicode="7" horiz-adv-x="967" d="M30 920l7 8q118 -2 230 -3t220 -1h56q108 0 217 1t201 3l4 -153q-85 -153 -164.5 -306.5t-148.5 -303t-125.5 -292t-94.5 -273.5l-266 -10l-5 7l620 1068h-604l-65 -204l-65 -7z" />
<glyph unicode="8" horiz-adv-x="1095" d="M60 320q0 110 72.5 190.5t227.5 157.5q-235 130 -235 346q0 159 126 258.5t315 99.5q168 0 280 -78t112 -207q0 -91 -69 -161t-194 -135q180 -84 260 -182t80 -224q0 -182 -147 -296.5t-358 -114.5q-208 0 -339 93t-131 253zM320 330q0 -114 63 -188.5t166 -74.5 q95 0 155 63t60 166q0 94 -64.5 163t-256.5 161q-123 -137 -123 -290zM364 1108q0 -78 53 -136.5t197 -136.5q93 126 93 227q0 103 -50 160t-132 57q-68 0 -114.5 -47.5t-46.5 -123.5z" />
<glyph unicode="9" horiz-adv-x="1119" d="M61 481q0 208 147.5 338.5t355.5 130.5q227 0 371.5 -156t144.5 -400q0 -357 -230.5 -585.5t-676.5 -268.5l-13 91q548 80 611 569l-1 1q-115 -130 -312 -130q-162 0 -279.5 110.5t-117.5 299.5zM353 562q0 -181 63.5 -278.5t161.5 -97.5q93 0 147 75.5t54 209.5 q0 192 -62.5 292t-174.5 100q-91 0 -140 -80.5t-49 -220.5z" />
<glyph unicode=":" horiz-adv-x="586" d="M185 130q0 70 44 112.5t115 42.5q68 0 112.5 -42.5t44.5 -112.5q0 -69 -44.5 -113t-112.5 -44q-71 0 -115 44t-44 113zM185 774q0 70 44 112.5t115 42.5q68 0 112.5 -42.5t44.5 -112.5q0 -69 -44.5 -113t-112.5 -44q-71 0 -115 44t-44 113z" />
<glyph unicode=";" horiz-adv-x="586" d="M133 -269q180 133 180 266q0 118 -131 184q0 74 43 115t110 41q72 0 119 -56t47 -141q0 -130 -79.5 -245.5t-237.5 -224.5zM185 774q0 70 44 112.5t115 42.5q68 0 112.5 -42.5t44.5 -112.5q0 -69 -44.5 -113t-112.5 -44q-71 0 -115 44t-44 113z" />
<glyph unicode="&#x3c;" d="M83 391v141l964 400v-147l-794 -324l794 -323v-147z" />
<glyph unicode="=" d="M83 211v141h964v-141h-964zM83 571v141h964v-141h-964z" />
<glyph unicode="&#x3e;" d="M83 -9v147l796 323l-796 324v147l964 -400v-141z" />
<glyph unicode="?" horiz-adv-x="930" d="M130 1321l6 9q203 58 357 58q173 0 275 -78t102 -222q0 -62 -17 -110.5t-46 -88.5t-67.5 -74.5t-81.5 -67.5t-75 -58t-53 -47t-31.5 -44.5t-10.5 -51.5q0 -43 44 -105l-60 -38q-193 174 -193 277q0 35 11.5 64t34.5 56.5t56 56.5t77 65q48 40 81 68.5t54 53.5t30 50t9 58 q0 64 -50.5 103t-128.5 39q-68 0 -138 -26l-63 -244l-55 -9zM312 125q0 68 42.5 109t111.5 41q67 0 110 -41t43 -109t-43 -110.5t-110 -42.5q-69 0 -111.5 42.5t-42.5 110.5z" />
<glyph unicode="@" horiz-adv-x="1805" d="M110 382q0 363 250.5 597.5t629.5 234.5q292 0 496 -172.5t204 -445.5q0 -247 -170 -402t-369 -155q-182 0 -206 139q-159 -135 -241 -135q-109 0 -174 83t-65 211q0 227 144 383t358 156q79 0 189 -32q74 6 162 28l12 -7q-30 -99 -69 -294l-63 -306q-6 -29 -6 -47 q0 -34 17.5 -51t46.5 -17q84 0 162.5 118t78.5 318q0 241 -151.5 389.5t-377.5 148.5q-284 0 -460.5 -202t-176.5 -512q0 -288 178 -467t457 -179q159 0 315.5 64.5t273.5 170.5l50 -57q-316 -298 -710 -298q-353 0 -569 203t-216 535zM728 383q0 -96 20 -150t65 -54 q47 0 134 82l102 498q-46 31 -94 31q-103 0 -165 -133t-62 -274z" />
<glyph unicode="A" horiz-adv-x="1371" d="M-57 47l107 32q38 11 56 36.5t40 77.5l498 1213l108 16l431 -1216q25 -70 45.5 -94.5t58.5 -35.5l98 -29l3 -50q-135 3 -272 3q-181 0 -353 -3l-5 50l99 29q20 6 29 15t9 27q0 20 -10 52.5t-29 85.5l-66 188h-410l-71 -187q-21 -55 -32.5 -88.5t-11.5 -51.5q0 -17 9 -26 t28 -14l96 -28l3 -52q-145 3 -236 3q-95 0 -217 -3zM420 548h334l-123 361q-19 57 -35 109q-18 -52 -39 -108z" />
<glyph unicode="B" horiz-adv-x="1354" d="M87 47l134 37q25 7 27 31q1 40 1.5 89.5t0.5 109.5v797q0 50 -0.5 91t-1.5 75q-1 26 -24 33l-134 39l-3 51q140 -4 288 -4q54 2 169 6t158 4q253 0 381.5 -81.5t128.5 -234.5q0 -240 -284 -332q165 -23 254.5 -115t89.5 -230q0 -200 -161 -309.5t-456 -109.5 q-58 0 -121.5 3t-158.5 3q-146 0 -283 -3zM548 94q56 -9 118 -9q137 0 208 79.5t71 230.5t-72 224.5t-233 73.5q-47 0 -92 -1v-598zM548 782q51 -1 97 -1q128 0 189.5 61.5t61.5 208.5q0 138 -63.5 198t-183.5 60q-19 0 -44.5 -1.5t-56.5 -5.5v-520z" />
<glyph unicode="C" horiz-adv-x="1351" d="M99 680q0 343 221 543t577 200q176 0 360 -41l6 -10l-65 -350l-55 -9l-76 287q-79 25 -171 25q-221 0 -342 -165.5t-121 -433.5q0 -286 142.5 -456t395.5 -170q141 0 297 57l13 -57q-200 -136 -452 -136q-327 0 -528.5 197t-201.5 519z" />
<glyph unicode="D" horiz-adv-x="1617" d="M87 47l134 37q26 8 27 31q1 40 1.5 89.5t0.5 109.5v797q0 50 -0.5 91t-1.5 75q-1 26 -24 33l-134 39l-3 51q140 -4 268 -4q108 0 207 5t205 5q373 0 561 -159.5t188 -473.5q0 -370 -208.5 -574.5t-586.5 -204.5q-104 0 -185 3t-178 3q-129 0 -266 -3zM550 102 q48 -9 94 -11.5t93 -2.5q217 0 330 153t113 466q0 305 -108 452.5t-340 147.5q-86 0 -182 -8v-1197z" />
<glyph unicode="E" horiz-adv-x="1233" d="M87 47l134 37q25 7 27 31q1 40 1.5 89.5t0.5 109.5v797q0 50 -0.5 91t-1.5 75q-1 26 -24 33l-134 39l-3 51q140 -4 266 -4h253q243 0 504 4l7 -8l-62 -333l-54 -8l-64 243h-387v-531h54q87 0 187 2q26 1 34 27l36 137l66 3q-3 -145 -3 -217q0 -70 3 -214l-66 -5l-37 141 q-8 27 -31 28q-102 2 -190 2h-53v-343q0 -110 2 -218h400l126 263l61 9l-24 -374l-7 -7q-249 3 -485 3h-265q-129 0 -266 -3z" />
<glyph unicode="F" horiz-adv-x="1153" d="M87 47l134 37q26 8 27 31q2 81 2 199v797q0 50 -0.5 91t-1.5 75q-1 26 -24 33l-134 39l-3 51q140 -4 266 -4h253q243 0 504 4l7 -8l-62 -333l-54 -8l-64 243h-387v-554h57q88 0 187 2q27 1 34 27l36 137l66 3q-3 -145 -3 -217q0 -70 3 -214l-66 -6l-37 142q-7 26 -31 28 q-101 2 -190 2h-56v-330q0 -118 2 -193q1 -24 26 -32l147 -42l3 -50q-155 3 -324 3q-173 0 -312 -3z" />
<glyph unicode="G" horiz-adv-x="1516" d="M99 668q0 354 221.5 554.5t604.5 200.5q184 0 362 -41l7 -9l-64 -342l-56 -8l-70 276q-84 27 -196 27q-224 0 -349.5 -166.5t-125.5 -457.5q0 -304 126 -474t353 -170q54 0 116 9v263q0 50 -0.5 91t-1.5 75q-1 26 -25 33l-136 39l-3 50q142 -3 308 -3q171 0 293 3l6 -50 l-119 -33q-24 -7 -26 -30q-1 -40 -1.5 -81.5t-0.5 -89.5v-315l-7 -7q-215 -49 -409 -49q-364 0 -585.5 186t-221.5 519z" />
<glyph unicode="H" horiz-adv-x="1695" d="M87 47l134 37q26 8 27 31q2 81 2 199v797q0 100 -2 166q-1 26 -24 33l-134 39l-3 51q139 -4 308 -4q174 0 296 4l6 -51l-119 -34q-25 -7 -26 -31q-2 -72 -2 -169v-324h596v324q0 97 -2 169q-1 24 -26 31l-117 34l-3 51q127 -4 300 -4q169 0 305 4l5 -51l-136 -39 q-23 -7 -25 -33q-2 -66 -2 -166v-797q0 -118 2 -199q2 -23 28 -31l130 -37l3 -50q-143 3 -316 3q-169 0 -289 -3l-5 50l120 35q25 7 26 35q2 79 2 197v371h-596v-371q0 -118 2 -197q1 -28 26 -35l116 -35l3 -50q-124 3 -293 3q-173 0 -312 -3z" />
<glyph unicode="I" horiz-adv-x="800" d="M87 47l134 37q25 7 27 31q1 40 1.5 89.5t0.5 109.5v797q0 50 -0.5 91t-1.5 75q-1 26 -24 33l-134 39l-3 51q139 -4 308 -4q174 0 312 4l5 -51l-134 -37q-24 -6 -26 -30q-1 -36 -1.5 -77.5t-0.5 -89.5v-801q0 -60 0.5 -109t1.5 -88q1 -26 34 -35l123 -35l3 -50 q-139 3 -308 3q-175 0 -312 -3z" />
<glyph unicode="J" horiz-adv-x="744" d="M-41 -374q97 43 151 95.5t82 119.5t35.5 151t7.5 189v930q0 50 -0.5 91t-1.5 75q-1 26 -24 33l-135 39l-3 51q140 -4 309 -4q173 0 312 4l5 -51l-134 -37q-25 -6 -27 -30q-1 -36 -1.5 -77.5t-0.5 -89.5v-904q0 -99 -9 -179t-31 -143t-61 -112.5t-100.5 -88.5t-149 -69 t-205.5 -52z" />
<glyph unicode="K" horiz-adv-x="1497" d="M87 47l134 37q26 8 27 31q1 40 1.5 89.5t0.5 109.5v797q0 50 -0.5 91t-1.5 75q-1 26 -24 33l-134 39l-3 51q139 -4 308 -4q173 0 296 4l6 -51l-119 -34q-24 -7 -26 -31q-1 -37 -1.5 -79t-0.5 -90v-801q0 -60 0.5 -109t1.5 -88q1 -27 26 -35l116 -35l3 -50q-124 3 -293 3 q-175 0 -312 -3zM573 699l410 451q49 53 77 89.5t28 58.5q0 19 -27 27l-87 22l-3 53q106 -4 232 -4q124 0 236 4l5 -51l-113 -31q-49 -15 -84 -46t-74 -73l-343 -383l440 -647q32 -45 57 -63.5t60 -28.5l97 -30l3 -50q-111 3 -229 3q-110 0 -237 -2q-30 66 -163 268z" />
<glyph unicode="L" horiz-adv-x="1181" d="M97 47l124 37q25 7 27 31q1 40 1.5 89.5t0.5 109.5v797q0 50 -0.5 91t-1.5 75q-1 26 -24 33l-124 39l-3 51q129 -4 298 -4q174 0 302 4l5 -51l-124 -37q-24 -6 -26 -30q-1 -36 -1.5 -102.5t-0.5 -64.5v-791q0 -110 2 -218h391l137 284l61 9l-25 -395l-7 -7q-247 3 -483 3 h-248q-149 0 -276 -3z" />
<glyph unicode="M" horiz-adv-x="1915" d="M67 47l134 37q26 8 27 31q2 81 2 199v797q0 100 -2 166q-1 26 -24 33l-134 39l-3 51q166 -4 249 -4q114 0 233 4l349 -881q23 -57 41 -108q20 51 42 108l359 881q138 -4 249 -4q99 0 233 4l6 -51l-137 -39q-23 -7 -24 -33q-2 -66 -2 -166v-797q0 -118 2 -199 q1 -23 27 -31l130 -37l4 -50q-143 3 -317 3q-169 0 -283 -3l-5 50l115 35q24 7 25 36q3 78 3 196v640q0 52 3 199q-34 -86 -72 -178l-398 -975l-90 -8l-380 947q-34 81 -70 181q2 -142 2 -187v-619q0 -118 2 -196q1 -29 26 -36l110 -35l3 -50q-118 3 -205 3q-86 0 -225 -3z " />
<glyph unicode="N" horiz-adv-x="1548" d="M62 47l134 37q26 8 27 31q2 81 2 199v797q0 100 -2 166q-1 26 -24 33l-134 39l-3 51q140 -4 215 -4q98 0 186 4l665 -833q40 -50 82 -106q-2 69 -2 133v521q0 97 -2 167q-1 23 -26 30l-128 35l-3 53q138 -4 224 -4q88 0 223 4l5 -51l-136 -39q-23 -7 -24 -33 q-3 -66 -3 -166v-1111l-115 -11l-788 987q-35 45 -81 107q2 -74 2 -136v-633q0 -118 2 -195q1 -29 25 -35l128 -35l3 -52q-135 3 -222 3q-86 0 -225 -3z" />
<glyph unicode="O" horiz-adv-x="1697" d="M99 684q0 346 205 547.5t567 201.5q348 0 538 -188.5t190 -514.5q0 -346 -204 -556.5t-568 -210.5q-348 0 -538 194.5t-190 526.5zM435 717q0 -320 108 -489.5t317 -169.5q206 0 304.5 154t98.5 484q0 310 -104 476.5t-322 166.5q-211 0 -306.5 -154.5t-95.5 -467.5z" />
<glyph unicode="P" horiz-adv-x="1314" d="M87 47l134 37q26 8 27 31q1 40 1.5 89.5t0.5 109.5v797q0 50 -0.5 91t-1.5 75q-1 26 -24 33l-134 39l-3 51q140 -4 277 -4q94 0 182.5 4t161.5 4q270 0 409 -93.5t139 -277.5q0 -217 -144.5 -337.5t-407.5 -120.5q-71 0 -154 11v-272q0 -60 0.5 -107.5t1.5 -85.5 q1 -23 26 -32l147 -42l3 -50q-155 3 -324 3q-175 0 -312 -3zM550 682q57 -11 113 -11q131 0 199.5 80.5t68.5 243.5q0 158 -65 235.5t-205 77.5q-55 0 -111 -8v-618z" />
<glyph unicode="Q" horiz-adv-x="1696" d="M99 684q0 346 205 547.5t567 201.5q348 0 538 -188.5t190 -514.5q0 -323 -176 -525.5t-466 -233.5q96 -194 421 -194q139 0 249 51l15 -55q-204 -228 -337 -228q-168 0 -297 100t-201 318q-335 7 -521.5 198.5t-186.5 522.5zM435 717q0 -320 108 -489.5t317 -169.5 q206 0 304.5 154t98.5 484q0 310 -104 476.5t-322 166.5q-211 0 -306.5 -154.5t-95.5 -467.5z" />
<glyph unicode="R" horiz-adv-x="1444" d="M87 47l134 37q25 7 27 31q1 40 1.5 89.5t0.5 109.5v797q0 50 -0.5 91t-1.5 75q-1 26 -24 33l-134 39l-3 51q140 -4 287 -4q31 0 77 1.5t112 3.5q60 2 100.5 3t63.5 1q257 0 385.5 -86t128.5 -251q0 -149 -78.5 -240.5t-230.5 -140.5q84 -124 129.5 -201t91.5 -151.5 t83.5 -131.5t70.5 -90q18 -15 34.5 -26t34.5 -19t38.5 -13.5t45.5 -10.5l4 -51q-98 -14 -224 -14q-100 0 -140 13t-71 37q-46 36 -84.5 94t-81.5 131t-88.5 155t-95.5 162q-15 23 -24.5 38t-19 22.5t-20 11t-26.5 4.5l-42 1v-334q0 -60 0.5 -107.5t1.5 -86.5q1 -32 23 -39 l104 -34l3 -50q-111 3 -275 3q-175 0 -312 -3zM547 735q53 -3 96 -3q142 0 208 71.5t66 223.5q0 147 -63.5 214.5t-197.5 67.5q-23 0 -49.5 -2t-59.5 -6v-566z" />
<glyph unicode="S" horiz-adv-x="1080" d="M90 33l53 360l62 10l75 -306q72 -33 160 -33q127 0 204.5 64.5t77.5 172.5q0 61 -24 103.5t-65 76t-93 59.5t-108 52q-61 30 -122 63t-109 80t-78 112.5t-30 158.5q0 191 146 304t379 113q148 0 337 -46l6 -9l-61 -322l-55 -9l-73 268q-64 25 -139 25q-106 0 -179.5 -62 t-73.5 -160q0 -59 24 -101t64 -75t91.5 -59t106.5 -52q61 -29 123 -63.5t111 -82t79.5 -113.5t30.5 -160q0 -203 -153 -319t-404 -116q-181 0 -357 57z" />
<glyph unicode="T" horiz-adv-x="1272" d="M26 1392l7 8q246 -4 471 -4h279q225 0 474 4l6 -8l-66 -366l-56 -9l-65 276h-289v-977q0 -118 2 -193q1 -24 27 -32l157 -44l3 -50q-166 3 -335 3q-176 0 -336 -3l-5 50l160 44q25 8 26 32q2 75 2 193v977h-288l-92 -266l-56 -9z" />
<glyph unicode="U" horiz-adv-x="1570" d="M50 1400q139 -4 308 -4q174 0 308 4l5 -51l-130 -37q-24 -6 -26 -30q-1 -36 -1.5 -77.5t-0.5 -89.5v-551q0 -273 82 -377.5t266 -104.5q181 0 271.5 110.5t90.5 358.5v564q0 48 -1 89.5t-2 77.5q-1 23 -26 30l-124 35l-3 53q133 -4 230 -4q90 0 226 4l5 -51l-136 -39 q-24 -7 -25 -33q-1 -34 -1.5 -75t-0.5 -91v-508q0 -344 -141.5 -493.5t-411.5 -149.5q-307 0 -453 142.5t-146 456.5v552q0 50 -0.5 91t-1.5 75q-1 26 -24 33l-134 39z" />
<glyph unicode="V" horiz-adv-x="1358" d="M-18 1400q136 -4 272 -4q181 0 353 4l5 -51l-98 -28q-20 -6 -29 -15t-9 -27q0 -20 10 -52.5t29 -86.5l221 -642q19 -57 35 -110q18 53 38 109l241 642q20 56 31.5 89t11.5 52q0 17 -9.5 26t-28.5 14l-95 27l-3 53q145 -4 236 -4q95 0 216 4l6 -51l-108 -31 q-37 -12 -55 -37t-40 -78l-491 -1208l-105 -10l-429 1206q-25 69 -45.5 93.5t-58.5 36.5l-97 28z" />
<glyph unicode="W" horiz-adv-x="2009" d="M-10 1400q135 -4 272 -4q180 0 352 4l6 -51l-99 -28q-20 -6 -29 -15t-9 -27q0 -20 7.5 -52t24.5 -87l186 -597q16 -54 27 -107q16 55 32 104l296 861l101 9l268 -867q17 -54 27 -107q16 55 33 104l208 599q20 59 28.5 90.5t8.5 50.5q0 17 -9.5 26t-28.5 14l-96 27l-3 53 q145 -4 236 -4q95 0 217 4l5 -51l-107 -31q-38 -12 -57.5 -37t-38.5 -78l-431 -1203l-109 -9l-253 793q-20 63 -41 136q-24 -72 -46 -135l-276 -785l-108 -9l-390 1200q-23 69 -44.5 93.5t-59.5 36.5l-97 28z" />
<glyph unicode="X" horiz-adv-x="1404" d="M-10 47l115 32q37 12 64 35.5t58 71.5l331 492l-342 543q-33 52 -56.5 72.5t-55.5 28.5l-104 27l-4 51q141 -4 325 -4q159 0 336 4l6 -51l-88 -24q-21 -5 -30 -14.5t-9 -24.5q0 -24 18.5 -56.5t39.5 -66.5l171 -272l154 237q32 46 56 89t24 67q0 27 -40 39l-88 24l-3 53 q111 -4 239 -4q124 0 234 4l6 -51l-112 -31q-39 -12 -62.5 -36t-63.5 -83l-280 -410l380 -601q41 -65 62.5 -84.5t58.5 -28.5l103 -28l3 -50q-139 3 -309 3q-159 0 -351 -3l-7 50l89 24q21 6 30 15.5t9 23.5q0 24 -18 56.5t-39 66.5l-217 343l-197 -307q-31 -47 -55 -88 t-24 -69q0 -14 7 -23.5t28 -15.5l86 -24l3 -52q-112 3 -241 3q-116 0 -235 -3z" />
<glyph unicode="Y" horiz-adv-x="1264" d="M-50 1400q99 -4 281 -4q200 0 379 4l5 -51l-102 -25q-23 -5 -34 -14.5t-11 -24.5q0 -21 14 -51t39 -71l223 -406l192 382q27 50 43 85t16 57q0 30 -45 42l-90 24l-3 53q111 -4 233 -4q111 0 219 4l5 -51l-106 -31q-36 -12 -55.5 -35.5t-39.5 -59.5l-316 -585v-324 q0 -60 0.5 -109t1.5 -88q1 -26 35 -35l112 -35l3 -50q-129 3 -298 3q-174 0 -302 -3l-5 50l124 37q25 7 27 31q1 40 2 89.5t1 109.5v300l-325 582q-37 61 -60.5 87.5t-62.5 38.5l-96 27z" />
<glyph unicode="Z" horiz-adv-x="1207" d="M65 47l693 1248h-489l-74 -243l-56 -8l-53 348l6 8q255 -4 480 -4h262q143 0 287 4l5 -51l-691 -1246h503l141 292l58 9l-27 -400l-6 -7q-284 3 -504 3h-268q-140 0 -262 -3z" />
<glyph unicode="[" horiz-adv-x="727" d="M210 -356v1905h425l2 -51l-249 -57v-1689l247 -57l2 -51h-427z" />
<glyph unicode="\" horiz-adv-x="825" d="M80 1426h140l505 -1652h-140z" />
<glyph unicode="]" horiz-adv-x="727" d="M90 -305l249 57v1689l-247 57l-2 51h427v-1905h-425z" />
<glyph unicode="^" d="M105 562l390 834h141l390 -834h-149l-314 678l-313 -678h-145z" />
<glyph unicode="_" horiz-adv-x="1024" d="M0 -178h1024v-90h-1024v90z" />
<glyph unicode="`" horiz-adv-x="840" d="M0 930zM149 1422h242l90 -378h-84z" />
<glyph unicode="a" horiz-adv-x="1097" d="M53 237q0 157 145.5 230t436.5 73l1 75q1 107 -51.5 157.5t-163.5 50.5q-103 0 -247 -45l-28 80q213 97 410 97q180 0 269.5 -80.5t88.5 -231.5l-5 -416q-1 -17 -1 -32q0 -30 3 -50q4 -31 18.5 -47.5t43 -23.5t82.5 -8l6 -46q-140 -48 -241 -48q-136 0 -179 107 q-127 -107 -269 -107q-139 0 -229 69.5t-90 195.5zM344 268q0 -88 47.5 -125.5t112.5 -37.5q74 0 129 38l2 302q-157 0 -224 -40t-67 -137z" />
<glyph unicode="b" horiz-adv-x="1247" d="M18 1430q249 37 436 77l11 -8q-6 -149 -6 -447v-191q153 94 298 94q190 0 300.5 -126.5t110.5 -330.5q0 -249 -157.5 -387t-436.5 -138q-175 0 -401 65q2 119 2 319v593q0 221 -4 399l-147 40zM459 90q66 -18 132 -18q136 0 203.5 100.5t67.5 286.5q0 170 -63 265 t-186 95q-78 0 -154 -33v-696z" />
<glyph unicode="c" horiz-adv-x="992" d="M78 438q0 231 153.5 374t391.5 143q151 0 291 -57q-36 -141 -63 -296l-55 -9l-77 250q-27 10 -73 10q-114 0 -187 -99.5t-73 -266.5q0 -195 92.5 -287.5t263.5 -92.5q82 0 172 19l8 -60q-166 -94 -343 -94q-219 0 -360 127t-141 339z" />
<glyph unicode="d" horiz-adv-x="1270" d="M79 429q0 250 148.5 386.5t415.5 136.5q66 0 144 -11q0 211 -4 408l-147 40l-7 41q244 37 436 77l12 -8q-7 -214 -7 -460v-544q0 -131 1 -270q0 -51 4 -82t17.5 -47.5t41.5 -22.5t82 -7l6 -44q-146 -50 -249 -50q-134 0 -176 109q-131 -109 -290 -109q-198 0 -313 130.5 t-115 326.5zM385 471q0 -165 64 -264t180 -99q86 0 158 37v686q-54 19 -121 19q-137 0 -209 -94.5t-72 -284.5z" />
<glyph unicode="e" horiz-adv-x="1101" d="M79 448q0 224 148.5 365.5t378.5 141.5q201 0 310.5 -108.5t109.5 -299.5q0 -29 -3 -60h-639q0 -201 98.5 -289t323.5 -88q109 0 208 19l8 -63q-185 -94 -390 -94q-244 0 -398.5 120.5t-154.5 355.5zM388 584h334v24q0 136 -34.5 195t-105.5 59q-85 0 -135.5 -81.5 t-58.5 -196.5z" />
<glyph unicode="f" horiz-adv-x="725" d="M45 45l123 33q28 8 29 32q3 62 3 131v574l-146 35l-9 54l156 13q0 280 126.5 435t351.5 155q119 0 217 -28q-32 -141 -53 -283l-55 -11l-62 224q-15 3 -35 3q-105 0 -156.5 -99.5t-51.5 -366.5v-27h242v-109h-242v-528q0 -94 2 -164q2 -28 26 -35l137 -38l3 -48 q-161 3 -307 3q-149 0 -294 -3z" />
<glyph unicode="g" horiz-adv-x="1117" d="M48 -309q0 118 156 244q-103 42 -103 124q0 99 151 280q-152 89 -152 265q0 156 116.5 251t314.5 95q52 0 141 -12q86 -14 133 -14q164 0 296 3l6 -50l-232 -59q74 -85 74 -192q0 -161 -116.5 -256.5t-306.5 -95.5q-118 0 -208 34q-39 -71 -39 -118q0 -26 26.5 -35 t109.5 -9q60 0 147 1.5t158 1.5q169 0 260 -62.5t91 -189.5q0 -187 -185.5 -299.5t-419.5 -112.5q-193 0 -305.5 57.5t-112.5 148.5zM243 -243q0 -78 72.5 -122.5t197.5 -44.5q150 0 260 58.5t110 157.5q0 54 -45 86t-198 32h-31q-47 0 -99 -2q-70 -3 -130 -3q-43 0 -89 3 q-48 -89 -48 -165zM384 621q0 -130 33 -201t112 -71q80 0 109.5 66.5t29.5 194.5q0 123 -32 194t-114 71q-80 0 -109 -65t-29 -189z" />
<glyph unicode="h" horiz-adv-x="1305" d="M38 1430q250 37 436 77l11 -8q-6 -138 -6 -294v-351q169 101 334 101q146 0 229 -79.5t83 -225.5v-351q0 -125 2 -185q1 -27 26 -34l121 -35l3 -48q-143 3 -288 3q-150 0 -270 -3l-4 48l100 30q23 7 25 30q1 15 1 63v419q0 123 -48 176.5t-143 53.5q-83 0 -171 -38v-440 q0 -125 2 -229q1 -27 23 -33l104 -32l2 -48q-124 3 -270 3q-149 0 -293 -3l-5 48l129 35q22 6 23 30q1 64 1 123v875q0 131 -4 241l-147 40z" />
<glyph unicode="i" horiz-adv-x="679" d="M46 45l127 35q23 6 25 30q2 39 2 131v322q0 131 -4 241l-143 37l-6 41q246 37 432 77l11 -8q-6 -138 -6 -294v-377q0 -119 2 -166q2 -27 25 -34l125 -35l3 -48q-148 3 -294 3q-149 0 -294 -3zM175 1281q0 71 45 112t117 41q66 0 108 -37.5t42 -106.5t-44.5 -112 t-116.5 -43q-66 0 -108.5 40.5t-42.5 105.5z" />
<glyph unicode="j" horiz-adv-x="644" d="M-11 -455q140 188 168 281t28 258v484q0 121 -4 236l-143 37l-6 41q246 37 431 77l12 -8q-6 -130 -6 -285v-535q0 -200 -108 -333t-315 -302zM160 1281q0 71 44.5 112t117.5 41q66 0 108 -37.5t42 -106.5t-44.5 -112t-116.5 -43q-66 0 -108.5 40.5t-42.5 105.5z" />
<glyph unicode="k" horiz-adv-x="1248" d="M38 1430q250 37 436 77l11 -8q-6 -138 -6 -294v-927q0 -119 2 -166q2 -27 25 -34l108 -33l4 -48q-132 3 -278 3q-149 0 -294 -3l-5 48l127 35q23 6 25 30q2 39 2 131v867q0 131 -4 241l-147 40zM497 480l384 376l-110 29l-5 47q122 -3 209 -3q71 0 232 3l5 -48 q-124 -28 -170.5 -52t-102.5 -76l-183 -175l305 -428q32 -43 59.5 -63t123.5 -45l4 -48q-182 3 -270 3q-62 0 -150 -2q-33 57 -78 125q-115 177 -253 357z" />
<glyph unicode="l" horiz-adv-x="674" d="M38 1430q250 37 436 77l11 -8q-6 -138 -6 -294v-925q0 -119 2 -166q2 -27 25 -34l125 -35l3 -48q-148 3 -294 3q-149 0 -294 -3l-5 48l127 35q23 6 25 30q2 39 2 131v867q0 131 -4 241l-147 40z" />
<glyph unicode="m" horiz-adv-x="1917" d="M47 45l129 35q22 6 23 30q1 64 1 123v329q0 131 -4 242l-143 37l-6 41q231 34 422 76l15 -8v-107q164 112 324 112q182 0 263 -132q186 132 363 132q141 0 222 -79.5t81 -225.5v-351q0 -125 2 -185q1 -27 26 -34l121 -35l3 -48q-143 3 -288 3q-150 0 -264 -3l-5 48l95 30 q23 7 25 30q1 15 1 63v419q0 123 -45.5 176.5t-136.5 53.5q-82 0 -174 -58q14 -49 14 -109v-351q0 -125 2 -189q1 -27 23 -33l100 -32l2 -48q-118 3 -263 3q-150 0 -264 -3l-4 48l94 30q23 7 25 30q1 15 1 63v419q0 123 -45.5 176.5t-135.5 53.5q-78 0 -162 -48v-430 q0 -125 2 -229q1 -27 23 -33l100 -32l2 -48q-120 3 -266 3q-149 0 -293 -3z" />
<glyph unicode="n" horiz-adv-x="1310" d="M47 45l129 35q22 6 23 30q1 64 1 123v329q0 131 -4 242l-143 37l-6 41q231 34 422 76l15 -8v-107q169 112 334 112q146 0 229 -79.5t83 -225.5v-351q0 -125 2 -185q1 -27 26 -34l121 -35l3 -48q-143 3 -288 3q-150 0 -270 -3l-4 48l100 30q23 7 25 30q1 15 1 63v419 q0 123 -48 176.5t-143 53.5q-83 0 -171 -48v-430q0 -125 2 -229q1 -27 23 -33l104 -32l2 -48q-124 3 -270 3q-149 0 -293 -3z" />
<glyph unicode="o" horiz-adv-x="1226" d="M79 455q0 219 148 359.5t400 140.5q239 0 379 -129.5t140 -342.5q0 -228 -152 -369.5t-396 -141.5q-237 0 -378 133.5t-141 349.5zM390 475q0 -182 54.5 -295.5t174.5 -113.5q112 0 164.5 100t52.5 297q0 185 -55.5 291.5t-173.5 106.5q-110 0 -163.5 -96t-53.5 -290z " />
<glyph unicode="p" horiz-adv-x="1252" d="M27 -438l126 35q24 6 25 30q2 74 2 222v399q0 436 -4 556l-143 37l-6 41q231 34 423 76l15 -8v-94q155 99 299 99q188 0 298.5 -124.5t110.5 -325.5q0 -249 -155.5 -391t-410.5 -142q-68 0 -142 14v-211q0 -99 2 -139q2 -31 27 -37l141 -37l3 -48q-166 3 -312 3 q-150 0 -294 -3zM465 86q70 -15 135 -15q132 0 200 101t68 289q0 177 -64 267.5t-185 90.5q-87 0 -154 -33v-700z" />
<glyph unicode="q" horiz-adv-x="1239" d="M78 429q0 248 151.5 387t415.5 139q114 0 240 -31q76 12 179 35l12 -8q-7 -195 -7 -461v-654q0 -165 1 -205q1 -27 24 -33l123 -36l4 -48q-145 3 -291 3q-149 0 -293 -3l-5 48l126 35q25 7 26 30q2 121 2 304v136q-139 -95 -289 -95q-190 0 -304.5 130.5t-114.5 326.5z M384 470q0 -168 62.5 -265t181.5 -97q84 0 158 34v696q-64 16 -124 16q-141 0 -209.5 -101t-68.5 -283z" />
<glyph unicode="r" horiz-adv-x="889" d="M47 45l127 35q24 7 25 30q1 43 1 123v334q0 163 -4 237l-143 37l-6 41q231 34 422 76l15 -8v-108q177 113 370 113l5 -7q-32 -159 -61 -340l-58 -10q-26 99 -51 152t-78 53q-51 0 -127 -34v-429q0 -155 2 -222q1 -28 25 -35l143 -38l3 -48q-166 3 -317 3q-144 0 -288 -3z " />
<glyph unicode="s" horiz-adv-x="935" d="M80 41q34 134 56 260l51 8l72 -218q61 -21 153 -21q87 0 141 33t54 92q0 49 -32.5 82.5t-129.5 66.5l-122 42q-117 41 -176 106.5t-59 160.5q0 146 115 224t317 78q166 0 300 -49q-30 -131 -51 -248l-55 -8l-60 192q-63 15 -136 15q-91 0 -148.5 -32t-57.5 -91 q0 -45 25 -69.5t86 -45.5l160 -56q143 -49 209 -118.5t66 -162.5q0 -147 -123.5 -228.5t-324.5 -81.5q-168 0 -330 69z" />
<glyph unicode="t" horiz-adv-x="798" d="M25 904l167 15l95 235q85 15 155 29l14 -7q-3 -121 -3 -257h280v-109h-280q-6 -312 -6 -529q0 -101 31 -139.5t119 -38.5q68 0 148 8l8 -60q-159 -78 -297 -78q-140 0 -216.5 58.5t-76.5 176.5q0 208 6 607l-135 35z" />
<glyph unicode="u" horiz-adv-x="1284" d="M17 882q245 37 432 77l11 -8q-6 -125 -6 -309v-308q0 -119 46.5 -172.5t131.5 -53.5q95 0 174 41v426q0 140 -4 231l-135 35l-6 41q237 37 423 77l12 -8q-7 -128 -7 -315q0 -363 1 -443q1 -40 6 -64.5t19 -37.5t41.5 -18.5t78.5 -6.5l5 -44q-144 -50 -248 -50 q-134 0 -176 108q-147 -108 -320 -108q-162 0 -244 80t-82 225v212q0 214 -4 315l-143 37z" />
<glyph unicode="v" horiz-adv-x="1061" d="M-26 932q131 -3 276 -3q138 0 264 3l6 -48l-107 -30q64 -187 151 -409q23 -59 47 -130q25 69 50 130q80 201 157 409l-104 30l-5 48q73 -3 182 -3q90 0 179 3l5 -48l-108 -29q-25 -8 -39 -39q-78 -182 -183.5 -436.5t-158.5 -388.5l-128 -14q-55 147 -159.5 401 t-177.5 433q-16 35 -44 45l-100 28z" />
<glyph unicode="w" horiz-adv-x="1563" d="M-17 932q131 -3 276 -3q138 0 264 3l6 -48l-107 -30q58 -185 139 -405q21 -62 43 -133q23 69 48 133q98 275 166 476l100 9q59 -177 164 -485q21 -62 43 -133q23 69 47 133q74 199 144 405l-104 30l-5 48q73 -3 183 -3q89 0 178 3l5 -48l-108 -29q-25 -8 -39 -39 q-74 -181 -174.5 -434t-151.5 -386l-128 -14q-53 146 -143 401q-26 80 -48 146q-26 -68 -53 -146q-97 -254 -149 -387l-128 -14q-53 146 -152 398.5t-169 430.5q-16 35 -44 45l-100 28z" />
<glyph unicode="x" horiz-adv-x="1093" d="M13 45l108 26q32 10 59 44q107 136 234 313l-137 222l-104 164q-20 31 -53 43l-98 27l-5 48q132 -3 281 -3q114 0 237 3l5 -48l-80 -22q47 -79 148 -245q97 136 170 243l-75 24l-6 48q79 -3 156 -3q95 0 177 3l5 -48l-105 -26q-26 -8 -48 -37q-101 -128 -219 -293 q145 -232 266 -416q19 -29 52 -40l96 -27l6 -48q-132 3 -281 3q-113 0 -236 -3l-5 48l79 22q-62 101 -172 272q-101 -140 -188 -270l75 -24l5 -48q-76 3 -153 3q-96 0 -189 -3z" />
<glyph unicode="y" horiz-adv-x="1049" d="M-36 932q133 -3 241 -3q140 0 298 3l5 -48l-125 -32q39 -98 74 -187t93 -225q26 -57 56 -133q30 78 61 155q81 213 149 392l-104 30l-5 48q78 -3 184 -3q92 0 176 3l5 -48l-96 -26q-32 -10 -46 -41q-35 -83 -78 -184q-130 -311 -202 -516q-46 -133 -83 -271.5t-59 -243.5 q-11 -57 -41 -78t-135 -21q-110 0 -210 8l-5 46q116 15 162 64q66 69 203 372l7 19l-53 15q-180 445 -327 789q-12 31 -45 41l-96 27z" />
<glyph unicode="z" horiz-adv-x="1041" d="M75 9q153 245 248 404t252 420h-315l-65 -204l-49 -7q-22 156 -49 301l3 9q200 -3 377 -3q274 0 467 3l8 -11q-132 -213 -245 -403.5t-247 -418.5h318l125 210l53 7q-18 -157 -25 -312l-7 -7q-172 3 -383 3q-295 0 -459 -3z" />
<glyph unicode="{" horiz-adv-x="740" d="M70 618q89 16 131 56.5t42 156.5v442q0 151 80.5 219t299.5 67l2 -54q-70 -15 -108 -35.5t-55.5 -50t-20.5 -70.5t-3 -98v-324q0 -151 -44.5 -223t-159.5 -104v-6q115 -32 159.5 -104t44.5 -223v-324q0 -57 3 -98t20.5 -70.5t55.5 -50t106 -35.5l2 -54q-221 -1 -301.5 67 t-80.5 219v442q0 116 -42 156.5t-129 56.5z" />
<glyph unicode="|" horiz-adv-x="722" d="M290 -508v2033h142v-2033h-142z" />
<glyph unicode="}" horiz-adv-x="740" d="M115 -311q70 15 108 35.5t55.5 50t20.5 70.5t3 98v324q0 151 44.5 223t159.5 104v6q-115 32 -159.5 104t-44.5 223v324q0 57 -3 98t-20.5 70.5t-55.5 50t-106 35.5l-2 54q221 1 301.5 -67t80.5 -219v-442q0 -116 42 -156.5t129 -56.5l2 -42q-89 -16 -131 -56.5 t-42 -156.5v-442q0 -151 -80.5 -219t-299.5 -67z" />
<glyph unicode="~" d="M83 366v141q138 88 259 88q66 0 127.5 -20t122.5 -44q57 -23 111 -42t112 -19q98 0 232 87v-141q-130 -83 -251 -83q-66 0 -128.5 20t-123.5 44q-58 22 -112 40t-111 18q-100 0 -238 -89z" />
<glyph unicode="&#xa2;" horiz-adv-x="929" d="M87 438q0 202 124 340t330 159l4 140l92 8l-4 -146q123 -6 250 -55q-17 -69 -32 -135.5t-29 -142.5l-51 -8l-72 232q-31 8 -68 9l-18 -713q45 -9 97 -9q77 0 173 24l7 -59q-135 -77 -280 -88l-3 -145l-92 -8l3 152q-199 15 -315 136.5t-116 308.5zM377 485 q0 -247 145 -327l17 668q-162 -61 -162 -341z" />
<glyph unicode="&#xa3;" horiz-adv-x="1083" d="M60 77q67 22 111.5 42.5t70.5 51.5t36 78.5t8 125.5l-3 118h-152v105h149l-3 94q-2 169 116.5 271t314.5 102q131 0 268 -39l6 -10l-56 -282l-46 -9l-63 224q-49 23 -105 23q-83 0 -132.5 -69.5t-47.5 -196.5l2 -108h257v-105h-255q-3 -188 -183 -305l1 -6h519l74 175 l58 8l-22 -361l-7 -7q-174 3 -427 3q-305 0 -484 -3z" />
<glyph unicode="&#xa5;" horiz-adv-x="1076" d="M-5 1043q48 -2 108 -3t148 -1q94 0 176 1t152 3l5 -48l-76 -24q-24 -8 -34 -19t-10 -27q0 -20 13.5 -46.5t31.5 -59.5l138 -242l111 217q23 47 38.5 77.5t15.5 51.5q0 16 -10.5 27.5t-34.5 19.5l-65 23l-3 50q43 -2 90.5 -3t100.5 -1q54 0 100.5 1t86.5 3l5 -48l-63 -26 q-20 -8 -34 -17.5t-25 -21.5t-20.5 -27.5t-21.5 -36.5l-170 -301h197v-95h-248v-112h248v-95h-248q0 -45 0.5 -83t1.5 -69q1 -13 9.5 -20.5t23.5 -12.5l106 -34l3 -47q-122 3 -282 3q-165 0 -286 -3l-4 47l112 36q13 4 21 10.5t10 26.5q2 22 2 42v41v63h-254v95h254v112 h-255v95h198l-173 285q-17 28 -29.5 47.5t-24.5 32.5t-27 22t-37 17l-68 26z" />
<glyph unicode="&#xa8;" horiz-adv-x="840" d="M0 930zM66 1285q0 64 40.5 101.5t105.5 37.5q60 0 98 -34.5t38 -95.5q0 -64 -40.5 -102.5t-104.5 -38.5q-60 0 -98.5 36.5t-38.5 95.5zM492 1285q0 64 40.5 101.5t105.5 37.5q60 0 98 -34.5t38 -95.5q0 -64 -40.5 -102.5t-104.5 -38.5q-60 0 -98.5 36.5t-38.5 95.5z" />
<glyph unicode="&#xa9;" horiz-adv-x="1631" d="M96 680q0 308 207 507t515 199q307 0 511 -201t204 -510q0 -296 -204 -494.5t-514 -198.5t-514.5 198.5t-204.5 499.5zM217 684q0 -266 167.5 -436.5t434.5 -170.5q262 0 428 168t166 434q0 271 -168 441.5t-429 170.5q-267 0 -433 -171t-166 -436zM403 681 q0 186 135 290.5t348 104.5q114 0 234 -30l4 -7l-48 -258l-40 -6l-56 211q-42 18 -89 18q-116 0 -179.5 -81.5t-63.5 -215.5q0 -145 84.5 -227t224.5 -82q81 0 170 42l12 -44q-136 -99 -303 -99q-183 0 -308 104t-125 280z" />
<glyph unicode="&#xab;" horiz-adv-x="1058" d="M85 488q190 159 381 391l56 -29q-85 -186 -205 -375q120 -196 206 -386l-57 -28q-192 232 -377 390zM505 488q190 159 381 391l56 -29q-85 -186 -205 -375q120 -196 206 -386l-57 -28q-192 232 -377 390z" />
<glyph unicode="&#xad;" horiz-adv-x="716" d="M80 424v146h556v-146h-556z" />
<glyph unicode="&#xae;" horiz-adv-x="848" d="M75 1060q0 158 102.5 253.5t258.5 95.5q161 0 259 -93t98 -253q0 -163 -99.5 -259.5t-263.5 -96.5q-160 0 -257.5 96.5t-97.5 256.5zM149 1061q0 -140 78 -221t206 -81q130 0 207.5 77.5t77.5 224.5q0 136 -79 216t-208 80q-125 0 -203.5 -79t-78.5 -217zM238 913l49 14 q10 4 11 13q1 16 1 37v45v102v39t-1 31q-1 12 -12 15l-47 13l-1 21q26 -1 51 -1.5t50 -0.5q15 0 47.5 2t54.5 2q147 0 147 -88q0 -61 -79 -91q29 -43 47.5 -75.5t41.5 -54.5q12 -12 21 -16.5t30 -8.5l2 -18q-28 -6 -60 -6q-28 0 -45 4.5t-32 16.5q-13 11 -32.5 43.5 l-37.5 62.5q-11 22 -17 27t-20 5h-17v-25v-44t1 -36q1 -15 9 -17l40 -11l1 -19q-25 1 -47.5 1h-45.5h-54.5t-53.5 -1zM390 1080q9 -1 25 -1q80 0 80 66q0 34 -18 50t-58 16q-11 0 -29 -2v-129z" />
<glyph unicode="&#xb4;" horiz-adv-x="840" d="M0 930zM355 1044l90 378h242l-248 -378h-84z" />
<glyph unicode="&#xb8;" horiz-adv-x="840" d="M239 -192l148 192h91l-78 -105q117 -50 117 -134q0 -112 -213 -255l-38 41q98 80 98 148q0 74 -121 105z" />
<glyph unicode="&#xbb;" horiz-adv-x="1058" d="M115 851l57 28q192 -232 377 -390l4 -37q-190 -159 -381 -391l-56 29q85 186 205 375q-120 196 -206 386zM535 851l57 28q192 -232 377 -390l4 -37q-190 -159 -381 -391l-56 29q85 186 205 375q-120 196 -206 386z" />
<glyph unicode="&#x2c6;" horiz-adv-x="840" d="M0 930zM114 1044l200 378h208l200 -378h-90l-214 224l-214 -224h-90z" />
<glyph unicode="&#x2da;" horiz-adv-x="840" d="M0 930zM184 1230q0 93 71 149.5t170 56.5t165 -53t66 -142q0 -90 -68 -143.5t-173 -53.5t-168 48.5t-63 137.5zM317 1244q0 -61 28.5 -95.5t74.5 -34.5q45 0 74 28.5t29 91.5q0 61 -28.5 96.5t-74.5 35.5t-74.5 -30t-28.5 -92z" />
<glyph unicode="&#x2dc;" horiz-adv-x="840" d="M0 930zM91 1157q73 118 124.5 166t107.5 48q31 0 59 -10q28 -11 79 -40q23 -13 40 -22.5t31 -16t26 -9.5t26 -3q33 0 56 16.5t84 83.5l56 -38q-120 -220 -236 -220q-39 0 -72 15.5t-74 39.5q-19 11 -33.5 19.5t-28 14.5t-25.5 9t-25 3q-31 0 -56 -17t-86 -83z" />
<glyph unicode="&#x2000;" horiz-adv-x="786" />
<glyph unicode="&#x2001;" horiz-adv-x="1573" />
<glyph unicode="&#x2002;" horiz-adv-x="786" />
<glyph unicode="&#x2003;" horiz-adv-x="1573" />
<glyph unicode="&#x2004;" horiz-adv-x="524" />
<glyph unicode="&#x2005;" horiz-adv-x="393" />
<glyph unicode="&#x2006;" horiz-adv-x="262" />
<glyph unicode="&#x2007;" horiz-adv-x="262" />
<glyph unicode="&#x2008;" horiz-adv-x="196" />
<glyph unicode="&#x2009;" horiz-adv-x="314" />
<glyph unicode="&#x200a;" horiz-adv-x="87" />
<glyph unicode="&#x2010;" horiz-adv-x="716" d="M80 424v146h556v-146h-556z" />
<glyph unicode="&#x2011;" horiz-adv-x="716" d="M80 424v146h556v-146h-556z" />
<glyph unicode="&#x2012;" horiz-adv-x="716" d="M80 424v146h556v-146h-556z" />
<glyph unicode="&#x2013;" horiz-adv-x="1024" d="M70 433v128h884v-128h-884z" />
<glyph unicode="&#x2014;" horiz-adv-x="2048" d="M70 433v128h1908v-128h-1908z" />
<glyph unicode="&#x2018;" horiz-adv-x="461" d="M75 1109q0 115 71 217.5t200 199.5l45 -54q-144 -121 -144 -238q0 -106 112 -161q0 -65 -38.5 -101.5t-97.5 -36.5q-64 0 -106 50t-42 124z" />
<glyph unicode="&#x2019;" horiz-adv-x="461" d="M70 970q144 121 144 238q0 106 -112 161q0 65 38.5 101.5t97.5 36.5q64 0 106 -50t42 -124q0 -115 -71 -217.5t-200 -199.5z" />
<glyph unicode="&#x201a;" horiz-adv-x="491" d="M61 -289q144 121 144 238q0 106 -112 161q0 65 38.5 101.5t97.5 36.5q64 0 106 -50t42 -124q0 -115 -71 -217.5t-200 -199.5z" />
<glyph unicode="&#x201c;" horiz-adv-x="811" d="M66 1109q0 115 71 217.5t200 199.5l45 -54q-144 -121 -144 -238q0 -106 112 -161q0 -65 -38.5 -101.5t-97.5 -36.5q-64 0 -106 50t-42 124zM435 1109q0 115 71 217.5t200 199.5l45 -54q-144 -121 -144 -238q0 -106 112 -161q0 -65 -38.5 -101.5t-97.5 -36.5 q-64 0 -106 50t-42 124z" />
<glyph unicode="&#x201d;" horiz-adv-x="811" d="M61 970q144 121 144 238q0 106 -112 161q0 65 38.5 101.5t97.5 36.5q64 0 106 -50t42 -124q0 -115 -71 -217.5t-200 -199.5zM430 970q144 121 144 238q0 106 -112 161q0 65 38.5 101.5t97.5 36.5q64 0 106 -50t42 -124q0 -115 -71 -217.5t-200 -199.5z" />
<glyph unicode="&#x201e;" horiz-adv-x="851" d="M51 -299q144 121 144 238q0 106 -112 161q0 65 38.5 101.5t97.5 36.5q64 0 106 -50t42 -124q0 -115 -71 -217.5t-200 -199.5zM420 -299q144 121 144 238q0 106 -112 161q0 65 38.5 101.5t97.5 36.5q64 0 106 -50t42 -124q0 -115 -71 -217.5t-200 -199.5z" />
<glyph unicode="&#x2022;" horiz-adv-x="642" d="M50 732q0 97 61 157.5t162 60.5q95 0 157 -60.5t62 -157.5t-62 -159t-157 -62q-101 0 -162 62t-61 159z" />
<glyph unicode="&#x2026;" horiz-adv-x="1540" d="M140 130q0 70 44 112.5t115 42.5q68 0 112.5 -42.5t44.5 -112.5q0 -69 -44.5 -113t-112.5 -44q-71 0 -115 44t-44 113zM652 130q0 70 44 112.5t115 42.5q68 0 112.5 -42.5t44.5 -112.5q0 -69 -44.5 -113t-112.5 -44q-71 0 -115 44t-44 113zM1164 130q0 70 44 112.5 t115 42.5q68 0 112.5 -42.5t44.5 -112.5q0 -69 -44.5 -113t-112.5 -44q-71 0 -115 44t-44 113z" />
<glyph unicode="&#x202f;" horiz-adv-x="314" />
<glyph unicode="&#x2039;" horiz-adv-x="638" d="M85 488q190 159 381 391l56 -29q-85 -186 -205 -375q120 -196 206 -386l-57 -28q-192 232 -377 390z" />
<glyph unicode="&#x203a;" horiz-adv-x="638" d="M115 851l57 28q192 -232 377 -390l4 -37q-190 -159 -381 -391l-56 29q85 186 205 375q-120 196 -206 386z" />
<glyph unicode="&#x205f;" horiz-adv-x="393" />
<glyph unicode="&#x20ac;" horiz-adv-x="1056" d="M32 574v95h136q51 193 204 294.5t374 101.5q129 0 264 -39l6 -9l-52 -262l-52 -8l-62 205q-41 19 -102 19q-113 0 -188.5 -78.5t-100.5 -223.5h385v-95h-394v-30q0 -49 4 -82h390v-95h-373q37 -132 125 -198t217 -66q106 0 216 54l11 -54q-153 -129 -344 -129 q-221 0 -359 104.5t-175 288.5h-129v95h117q-1 24 -1 45q0 34 3 67h-120z" />
<glyph unicode="&#x2122;" horiz-adv-x="1422" d="M75 1394l3 4q133 -2 235 -2h31q101 0 235 2l4 -4l-35 -189l-24 -5l-31 144h-104v-285q0 -63 1 -105q1 -12 15 -15l74 -22l1 -27q-78 2 -153 2t-150 -2l-2 27l74 22q13 3 14 15q1 42 1 105v285h-105l-46 -139l-24 -5zM620 917l65 19q15 5 15 17q1 44 1 108v181q0 53 -1 90 q0 14 -13 17l-67 21v27q68 -2 107 -2q62 0 116 2l163 -346l159 347q52 -2 92 -2q61 0 128 2l2 -27l-67 -21q-13 -3 -14 -17q-1 -37 -1 -90v-182q0 -64 1 -108q1 -12 15 -17l65 -19l1 -27q-71 2 -146 2q-74 0 -136 -2l-2 27l62 18q13 5 13 19q1 43 1 107v233l-3 -7l-182 -395 l-48 -5l-184 389v-215q0 -64 1 -107q0 -14 15 -19l60 -18l1 -27q-65 2 -107 2t-111 -2z" />
<glyph unicode="&#x25fc;" horiz-adv-x="930" d="M0 0v930h930v-930h-930z" />
</font>
</defs>
</svg>
