<?xml version="1.0" encoding="iso-8859-1"?>
<!-- Generator: Adobe Illustrator 16.0.0, SVG Export Plug-In . SVG Version: 6.00 Build 0)  -->
<!DOCTYPE svg PUBLIC "-//W3C//DTD SVG 1.1 Tiny//EN" "http://www.w3.org/Graphics/SVG/1.1/DTD/svg11-tiny.dtd">
<svg version="1.1" baseProfile="tiny" id="Layer_1" xmlns="http://www.w3.org/2000/svg" xmlns:xlink="http://www.w3.org/1999/xlink"
	 x="0px" y="0px" width="34px" height="34px" viewBox="0 0 34 34" xml:space="preserve">
<path fill-rule="evenodd" fill="#D3D3D3" d="M21.27,21.25H17h-2.12h-0.03c-1.16,0-2.1-0.94-2.1-2.1v-6.42c0-1.16,0.94-2.11,2.1-2.11
	h0.05c1.16,0,2.1,0.95,2.1,2.11v3.21c0,0.58,0.48,1.06,1.06,1.06h3.21c1.16,0,2.11,0.94,2.11,2.1v0.05
	C23.38,20.31,22.43,21.25,21.27,21.25z M17,4.25C9.97,4.25,4.25,9.97,4.25,17S9.97,29.75,17,29.75S29.75,24.03,29.75,17
	S24.03,4.25,17,4.25z M17,34C7.61,34,0,26.39,0,17S7.61,0,17,0s17,7.61,17,17S26.39,34,17,34z"/>
</svg>
