<?xml version="1.0" encoding="iso-8859-1"?>
<!-- Generator: Adobe Illustrator 16.0.0, SVG Export Plug-In . SVG Version: 6.00 Build 0)  -->
<!DOCTYPE svg PUBLIC "-//W3C//DTD SVG 1.1 Tiny//EN" "http://www.w3.org/Graphics/SVG/1.1/DTD/svg11-tiny.dtd">
<svg version="1.1" baseProfile="tiny" id="Layer_1" xmlns="http://www.w3.org/2000/svg" xmlns:xlink="http://www.w3.org/1999/xlink"
	 x="0px" y="0px" width="40px" height="33px" viewBox="0 0 40 33" xml:space="preserve">
<path fill-rule="evenodd" fill="#D3D3D3" d="M15,3.3c-3.69,0-6.68,2.95-6.68,6.59c0,3.64,2.99,6.6,6.68,6.6s6.67-2.96,6.67-6.6
	C21.67,6.25,18.69,3.3,15,3.3z M3.46,29.71H26.6c-0.74-5.32-5.14-9.49-10.62-9.93c-0.31,0.03-0.63,0.05-0.95,0.05
	c-0.32,0-0.64-0.02-0.96-0.05C8.6,20.22,4.2,24.39,3.46,29.71z M25.06,9.91c0,3.19-1.53,6.02-3.89,7.84
	c5.21,2.32,8.84,7.49,8.84,13.51c0,0.57-0.04,1.12-0.1,1.68h-1.58V33H1.71v-0.06H0.1C0.04,32.38,0,31.83,0,31.26
	c0-6.03,3.65-11.21,8.87-13.53c-2.35-1.81-3.88-4.63-3.88-7.82C4.99,4.44,9.49,0,15.03,0C20.57,0,25.06,4.44,25.06,9.91z M40,31.26
	c0,0.57-0.04,1.12-0.1,1.68h-1.58V33h-6.66v-3.29h4.93c-0.69-4.95-4.54-8.89-9.47-9.78c-0.65-0.67-1.37-1.25-2.11-1.8v-1.64
	c3.67-0.01,6.65-2.96,6.65-6.6c0-3.64-2.99-6.59-6.67-6.59c-0.16,0-0.31,0.01-0.46,0.02c-0.75-1.06-1.68-1.98-2.74-2.74
	c1.01-0.34,2.09-0.53,3.22-0.53c5.55,0,10.04,4.44,10.04,9.92c0,3.17-1.51,5.98-3.86,7.8C36.38,20.1,40,25.26,40,31.26z"/>
</svg>
